<?xml version="1.0" encoding="utf-8"?>
<!-- Generator: Adobe Illustrator 24.0.1, SVG Export Plug-In . SVG Version: 6.00 Build 0)  -->
<svg version="1.1" xmlns="http://www.w3.org/2000/svg" xmlns:xlink="http://www.w3.org/1999/xlink" x="0px" y="0px"
	 viewBox="0 0 3710 3710" style="enable-background:new 0 0 3710 3710;" xml:space="preserve">
<style type="text/css">
	.st0{fill:#FFFFFF;}
	.st1{fill:url(#SVGID_1_);}
	.st2{fill:#91B3FA;}
	.st3{fill:#BDD0FB;}
	.st4{fill:url(#SVGID_2_);}
	.st5{fill:url(#SVGID_3_);}
	.st6{fill:url(#SVGID_4_);}
	.st7{opacity:0.44;fill:#FFFFFF;}
	.st8{opacity:0.43;fill:#FFFFFF;}
	.st9{opacity:0.46;fill:#FFFFFF;}
	.st10{opacity:0.38;fill:#FFFFFF;}
	.st11{opacity:0.42;fill:#FFFFFF;}
	.st12{opacity:0.58;fill:#FFFFFF;}
	.st13{opacity:0.28;fill:#FFFFFF;}
	.st14{opacity:0.47;fill:#FFFFFF;}
	.st15{fill:url(#SVGID_5_);}
	.st16{opacity:0.69;fill:#FFFFFF;}
	.st17{fill:url(#SVGID_6_);}
	.st18{fill:url(#SVGID_7_);}
	.st19{fill:url(#SVGID_8_);}
	.st20{fill:url(#SVGID_9_);}
	.st21{fill:url(#SVGID_10_);}
	.st22{fill:url(#SVGID_11_);}
	.st23{fill:url(#SVGID_12_);}
	.st24{fill:url(#SVGID_13_);}
	.st25{fill:url(#SVGID_14_);}
	.st26{fill:url(#SVGID_15_);}
	.st27{fill:url(#SVGID_16_);}
	.st28{fill:url(#SVGID_17_);}
	.st29{fill:url(#SVGID_18_);}
	.st30{fill:url(#SVGID_19_);}
	.st31{fill:url(#SVGID_20_);}
	.st32{fill:url(#SVGID_21_);}
	.st33{opacity:0.76;fill:#FFFFFF;}
	.st34{fill:url(#SVGID_22_);}
	.st35{fill:#7D97F4;}
	.st36{fill:url(#SVGID_23_);}
	.st37{fill:url(#SVGID_24_);}
	.st38{fill:url(#SVGID_25_);}
	.st39{fill:url(#SVGID_26_);}
	.st40{fill:url(#SVGID_27_);}
	.st41{fill:url(#SVGID_28_);}
	.st42{fill:url(#SVGID_29_);}
	.st43{fill:url(#SVGID_30_);}
	.st44{fill:url(#SVGID_31_);}
	.st45{fill:url(#SVGID_32_);}
	.st46{fill:url(#SVGID_33_);}
	.st47{fill:url(#SVGID_34_);}
	.st48{fill:url(#SVGID_35_);}
	.st49{fill:url(#SVGID_36_);}
	.st50{fill:url(#SVGID_37_);}
	.st51{opacity:0.64;}
	.st52{fill:url(#SVGID_38_);}
	.st53{fill:url(#SVGID_39_);}
	.st54{fill:url(#SVGID_40_);}
	.st55{fill:url(#SVGID_41_);}
	.st56{fill:url(#SVGID_42_);}
	.st57{fill:url(#SVGID_43_);}
	.st58{fill:url(#SVGID_44_);}
	.st59{fill:url(#SVGID_45_);}
	.st60{fill:url(#SVGID_46_);}
	.st61{fill:url(#SVGID_47_);}
	.st62{fill:url(#SVGID_48_);}
	.st63{fill:url(#SVGID_49_);}
	.st64{fill:url(#SVGID_50_);}
	.st65{fill:url(#SVGID_51_);}
</style>
<g id="Background">
	<g>
		<g>
			<rect class="st0" width="3710" height="3710"/>
		</g>
	</g>
</g>
<g id="Illustration">
	<g>
		<linearGradient id="SVGID_1_" gradientUnits="userSpaceOnUse" x1="3631.8826" y1="3987.5842" x2="1198.78" y2="965.8235">
			<stop  offset="0" style="stop-color:#DAE3FE"/>
			<stop  offset="1" style="stop-color:#E9EFFD"/>
		</linearGradient>
		<path class="st1" d="M2962.5,2795.9c-55.9,58.8-108.8,96.8-150.5,126.8c-491.1,352.4-1072.2,249.7-1195.7,224.6
			c-182.4-37-534.9-108.6-789.8-408.4C440.9,2285.4,500.9,1571,800,1099.4c54.7-86.3,343.7-565,931.1-641.8
			c355.5-46.5,769.8,47.3,1069.9,298.7C3430.9,1284,3386,2350,2962.5,2795.9z"/>
		<g>
			<path class="st2" d="M554.8,420.4c-2.6-11,12.9-18.4,22.4-10.7c96.4,78.2,328.1,312.3,270.4,721.5
				c-72.4,513.4,51.4,700.7,205.6,814.9c0,0-211.7-53.7-344.9-243.8C381.2,1235.7,600.8,616.4,554.8,420.4z"/>
			<path class="st0" d="M628.2,580.8c12.1,57.1,22.8,114.5,31.1,172.1c8.7,57.5,15.3,115.3,19.8,173.1c4.3,57.8,7.3,115.7,7.5,173.7
				c0.5,57.9-1.9,115.8-4.6,173.9c-2.3,58.1-5,116.6-0.7,175.5c4.2,58.8,16.6,118.1,41.1,173.7c6.1,13.9,12.6,27.7,19.9,41
				c7.1,13.5,14.8,26.7,22.8,39.8c16.2,26.1,34.4,51.3,54.7,75.2c40.7,47.8,89.9,90.2,144,126c5.7,3.8,13.9,2.8,18.2-2.1
				c4.3-4.8,3.3-11.7-2.1-15.5l0,0c-12.9-9-25.6-18.2-37.9-27.8c-6.2-4.7-12.2-9.7-18.2-14.5c-5.8-5-11.9-9.9-17.5-15.1
				c-23-20.5-44.3-42.3-63.6-65.4c-38.9-45.9-70-97.1-93.5-150.2c-11.4-26.7-20.6-54-27.3-81.9c-6.7-27.9-10.8-56.2-13.2-84.8
				c-4.6-57.2-2.5-115.1-0.7-173.2c1.7-58.1,3-116.5,1.4-174.9c-0.7-29.2-2-58.3-3.8-87.5c-0.8-14.6-2-29.1-3.2-43.7
				c-1.3-14.5-2.7-29.1-4.2-43.6c-6.3-58.1-14.6-115.9-25-173.5C662.5,693.6,650,636.3,635,579.6c-0.4-1.6-2.3-2.6-4.2-2.3
				C629,577.6,627.9,579.2,628.2,580.8z"/>
		</g>
		<g>
			<g>
				<path class="st3" d="M804.6,1688c-11.8,12.5-32.6,8.9-39.7-6.8c-39.2-86.6-128-341.6,18.6-635.4
					c123.8-248.1,167.4-394.3,182.6-462.1c3.2-14.3,22.9-16.2,28.8-2.8C1060.3,729.3,1233,1233.5,804.6,1688z"/>
				<path class="st0" d="M783.1,1678.9c-0.4,0.1-0.9,0.1-1.3,0.1c-3.7-0.1-6.7-3.1-6.6-6.8c0.1-4.2,8.3-425.3,164.9-778
					c1.5-3.4,5.5-4.9,8.9-3.4c3.4,1.5,4.9,5.5,3.4,8.9c-155.5,350.1-163.7,768.6-163.7,772.7
					C788.6,1675.6,786.2,1678.3,783.1,1678.9z"/>
			</g>
		</g>
		<g>
			<linearGradient id="SVGID_2_" gradientUnits="userSpaceOnUse" x1="2009.9423" y1="2405.772" x2="2009.9423" y2="3617.1233">
				<stop  offset="0" style="stop-color:#09005D"/>
				<stop  offset="1" style="stop-color:#1A0F91"/>
			</linearGradient>
			<polygon class="st4" points="1722.3,2459.9 1662.4,2997.2 2357.5,2997.2 2267,2459.9 			"/>
			<linearGradient id="SVGID_3_" gradientUnits="userSpaceOnUse" x1="1925.9633" y1="460.7343" x2="1946.1542" y2="2540.2163">
				<stop  offset="0" style="stop-color:#09005D"/>
				<stop  offset="1" style="stop-color:#1A0F91"/>
			</linearGradient>
			<path class="st5" d="M554.7,1136v1230.6c0,101.2,80.7,184,181.9,186.6c449.5,11.6,2021.5,39.7,2449.4,33.4
				c73.5-1.1,133.1-59.9,135.2-133.5c8.3-285.9,21.7-973.4-27.9-1292.5c-10.4-67.2-67.2-117.5-135.2-119.6
				c-376.6-12-2043.1-50.3-2470.8-40.7C613.6,1002,554.7,1062.2,554.7,1136z"/>
			<path class="st2" d="M631.9,1130v1169.2c0,59.1,47.4,107.3,106.5,108.2l2386,29.5c58.6,0.9,106.6-46.3,106.8-104.9l4-1158.7
				c0.2-41.9-33.2-76.2-75.1-77.2l-2442.8-49.4C670.5,1045.5,631.9,1083.2,631.9,1130z"/>
			<path class="st2" d="M3249.2,2485.1C3249.2,2485.1,3249.2,2485.1,3249.2,2485.1l-2617.4-44.6c-2,0-3.6-1.7-3.6-3.7
				c0-2,1.6-3.6,3.7-3.6l2617.3,44.6c2,0,3.6,1.7,3.6,3.7C3252.8,2483.5,3251.2,2485.1,3249.2,2485.1z"/>
			<linearGradient id="SVGID_4_" gradientUnits="userSpaceOnUse" x1="2082.8245" y1="2061.738" x2="1995.3391" y2="3111.5723">
				<stop  offset="0" style="stop-color:#09005D"/>
				<stop  offset="1" style="stop-color:#1A0F91"/>
			</linearGradient>
			<path class="st6" d="M2507.2,3107.1H1489.9c-27.6,0-48.4-19.7-43-40.8l13.1-51.6c3.9-15.5,21-26.9,41.3-27.6l980.7-30.6
				c21.2-0.7,40,10.6,44.6,26.7l23.5,82.2C2556.1,3086.8,2535.3,3107.1,2507.2,3107.1z"/>
			<path class="st2" d="M2037.5,3001.5c-2,0-3.6-1.6-3.7-3.6c0-2,1.6-3.7,3.6-3.7l42-0.6h0.1c2,0,3.6,1.6,3.7,3.6
				c0,2-1.6,3.7-3.6,3.7L2037.5,3001.5C2037.6,3001.5,2037.6,3001.5,2037.5,3001.5z"/>
			<path class="st2" d="M1484.5,3079c-0.2,0-0.4,0-0.6,0c-2-0.3-3.4-2.2-3-4.2l6-37.5c3.2-20.3,20.6-35.3,41.2-35.6l445.7-6.5
				c1.9-0.1,3.7,1.6,3.7,3.6c0,2-1.6,3.7-3.6,3.7l-445.7,6.5c-17,0.3-31.3,12.6-34,29.5l-6,37.5
				C1487.8,3077.7,1486.3,3079,1484.5,3079z"/>
		</g>
		<g>
			<path class="st7" d="M2715.5,1490.4h-265.2c-16.6,0-30.1-13.5-30.1-30.1s13.5-30.1,30.1-30.1h265.2c16.6,0,30.1,13.5,30.1,30.1
				S2732.2,1490.4,2715.5,1490.4z"/>
			<path class="st8" d="M2813.1,1443h286.2c18,0,32.5,53.5,32.5,119.6v704.2c0,66-14.6,119.6-32.5,119.6h-286.2
				c-18,0-32.5-53.5-32.5-119.6v-704.2C2780.6,1496.5,2795.2,1443,2813.1,1443z"/>
			<path class="st9" d="M2450.3,1523.9h265.2c16.6,0,30.1,13.5,30.1,30.1v177.5c0,16.6-13.5,30.1-30.1,30.1h-265.2
				c-16.6,0-30.1-13.5-30.1-30.1v-177.5C2420.2,1537.4,2433.7,1523.9,2450.3,1523.9z"/>
			<path class="st10" d="M2450.3,1814.9h265.2c16.6,0,30.1,32.5,30.1,72.6v427.8c0,40.1-13.5,72.6-30.1,72.6h-265.2
				c-16.6,0-30.1-32.5-30.1-72.6v-427.8C2420.2,1847.4,2433.7,1814.9,2450.3,1814.9z"/>
			<path class="st11" d="M3128.6,1392.8H752.8c-27.5,0-49.8-22.3-49.8-49.8v-198.2c0-28,23.1-50.5,51.1-49.8l2375.8,60.1
				c27,0.7,48.5,22.8,48.5,49.8V1343C3178.4,1370.5,3156.1,1392.8,3128.6,1392.8z"/>
			<path class="st12" d="M2333.8,2207.6h-800.5c-20.2,0-36.5-16.3-36.5-36.5v-682.8c0-20.2,16.3-36.5,36.5-36.5h800.5
				c20.2,0,36.5,16.3,36.5,36.5V2171C2370.3,2191.2,2354,2207.6,2333.8,2207.6z"/>
			<path class="st13" d="M2368.1,2400.5l-1646-13.8c-20-0.2-36-16.4-36-36.4v-58.1c0-27.8,22.5-50.3,50.3-50.3h1629.5
				c10.7,0,19.4,8.7,19.4,19.4v122.1C2385.2,2392.9,2377.5,2400.6,2368.1,2400.5z"/>
			<path class="st14" d="M1411.6,2190.1H720.4c-19,0-34.4-15.4-34.4-34.4v-691.2c0-19,15.4-34.4,34.4-34.4h691.2
				c19,0,34.4,15.4,34.4,34.4v691.2C1446,2174.7,1430.6,2190.1,1411.6,2190.1z"/>
		</g>
		<g>
			<g>
				<g>
					<linearGradient id="SVGID_5_" gradientUnits="userSpaceOnUse" x1="1845.8883" y1="2155.2371" x2="2727.4834" y2="1536.1013">
						<stop  offset="0" style="stop-color:#FF928E"/>
						<stop  offset="1" style="stop-color:#FE7062"/>
					</linearGradient>
					<path class="st15" d="M1919.3,1508.8l778.5-7c15.3-0.1,27.7,12.2,27.6,27.5l-3.4,597.4c-0.1,15.4-12.8,27.6-28.1,27.2
						c-140.8-4.2-765.7-22.7-793.2-21.6c-27.3,1.1-12.5-478.7-8.4-597.1C1892.7,1520.5,1904.7,1508.9,1919.3,1508.8z"/>
					<path class="st16" d="M2694.7,2131.4l-0.2,0c-111.8-3.3-674.9-20.1-778.7-21.5l-1.4,0l-0.2-1.4c-9.8-55.1-9.6-279.8,0.5-572.5
						c0.1-2.6,2.2-4.6,4.8-4.6l778.5-7c1.7,0,2.8,0.8,3.5,1.4c0.9,0.9,1.4,2.1,1.4,3.4l-3.4,597.4
						C2699.4,2129.2,2697.3,2131.4,2694.7,2131.4z M1917.3,2106.5c107.4,1.6,666,18.2,777.3,21.5l0.1,0c0.7,0,1.4-0.7,1.4-1.5
						l3.4-597.4c0-0.4-0.1-0.7-0.4-1c-0.3-0.3-0.6-0.4-1.1-0.4l-778.5,7c-0.8,0-1.4,0.6-1.4,1.4
						C1908.1,1826.2,1907.8,2049.4,1917.3,2106.5z"/>
				</g>
				<path class="st0" d="M2013.3,2054.6h510.3c15.9,0,25.8-17.3,17.7-31l-202-343.4c-8.4-14.3-29.5-13.2-36.4,1.9l-97.5,213.7
					c-5.8,12.7-22.3,16-32.6,6.6l-39.5-36.2c-9.2-8.4-23.6-6.8-30.7,3.4l-106.1,152.6C1986.9,2035.9,1996.7,2054.6,2013.3,2054.6z"
					/>
				
					<ellipse transform="matrix(0.9239 -0.3827 0.3827 0.9239 -447.431 1090.1827)" class="st0" cx="2516.6" cy="1669.8" rx="73.4" ry="73.4"/>
			</g>
			<g>
				<g>
					
						<linearGradient id="SVGID_6_" gradientUnits="userSpaceOnUse" x1="2937.9453" y1="2507.2346" x2="3183.3193" y2="1910.9025" gradientTransform="matrix(0.9998 -1.890000e-02 1.890000e-02 0.9998 -59.5478 19.4772)">
						<stop  offset="0" style="stop-color:#09005D"/>
						<stop  offset="1" style="stop-color:#1A0F91"/>
					</linearGradient>
					<path class="st17" d="M3184.6,2224.6c-17.9-66.3-73.3-120.7-134.9-134.4c-11.3-2.5-17.9-14.1-15.2-25.4c0-0.1,0-0.2,0.1-0.2
						c8.9-38.5-15.8-69.2-53-77.9c-37.2-8.6-72.9,8.1-81.9,46.6c-6,26,1.7,55.3,18.8,74.2c7,7.8,7.6,19.5,0.8,27.5
						c-37.6,44-52.9,111.2-36.6,171.3c23.9,88.5,107.2,128.1,190.6,105.5C3156.6,2389.2,3208.6,2313.1,3184.6,2224.6z"/>
					<path class="st2" d="M3158.7,2309.1l-1.6-1.1c14.9-21.2,16.8-51.8,5-79.8c-9.4-22.3-26.2-42.7-53-64.1
						c-10-8-20.5-15.6-30.7-22.9c-12.3-8.8-25-18-36.8-27.9c-10.6-8.9-21.8-20-24.1-34.5c-1.2-7.2-0.1-14.9,1-22.4
						c1.7-11.7,3.2-22.7-3.6-31.1l1.5-1.2c7.4,9.1,5.7,21.1,4,32.6c-1,7.3-2.1,14.9-1,21.8c2.2,13.9,13.1,24.6,23.4,33.3
						c11.7,9.9,24.4,19,36.7,27.8c10.2,7.4,20.8,15,30.8,23c27,21.7,44,42.3,53.6,64.9C3176,2256,3174,2287.3,3158.7,2309.1z"/>
					<path class="st2" d="M3119,2321.9l-1.9-0.7c10.2-28.1,7.2-62.6-8.2-94.7c-15.2-31.8-40.1-57.8-60-76.8l1.4-1.4
						c20.1,19.2,45.1,45.3,60.5,77.4C3126.4,2258.2,3129.4,2293.3,3119,2321.9z"/>
				</g>
				<linearGradient id="SVGID_7_" gradientUnits="userSpaceOnUse" x1="2705.8896" y1="1872.3654" x2="2917.145" y2="2349.3667">
					<stop  offset="0" style="stop-color:#FEBBBA"/>
					<stop  offset="1" style="stop-color:#FF928E"/>
				</linearGradient>
				<path class="st18" d="M2719.1,1958.4l-0.7-22.9l23.9-47.5c4.4-8.7,4.4-18.9,0.1-27.6l-27.1-54.7c0,0-15.6,118.7-19.8,128.6
					c-4.1,9.9,11.2,27.6,11.2,27.6L2719.1,1958.4z"/>
				<linearGradient id="SVGID_8_" gradientUnits="userSpaceOnUse" x1="2709.6428" y1="1870.703" x2="2920.8982" y2="2347.7043">
					<stop  offset="0" style="stop-color:#FEBBBA"/>
					<stop  offset="1" style="stop-color:#FF928E"/>
				</linearGradient>
				<path class="st19" d="M2718.4,1935.5c0,0,72.7,198.3,196.7,260.3c0,0-41.3,67.3-62.8,71.4c0,0-132.4-169.5-145.9-308.3
					L2718.4,1935.5z"/>
				<linearGradient id="SVGID_9_" gradientUnits="userSpaceOnUse" x1="3236.5183" y1="2835.4607" x2="3251.0464" y2="3193.8228">
					<stop  offset="0" style="stop-color:#4F52FF"/>
					<stop  offset="1" style="stop-color:#4042E2"/>
				</linearGradient>
				<path class="st20" d="M3216.9,3128.4l3.7,30.1c3.8,14.3,22.2,50.3,45.8,48c14.5-1.4,16.3-43.9,14.3-50.3
					c-3.7-11.6-10.4-29-20.2-39.3h-33.4C3220.9,3116.9,3216.1,3122.3,3216.9,3128.4z"/>
				<linearGradient id="SVGID_10_" gradientUnits="userSpaceOnUse" x1="2945.0308" y1="3397.5061" x2="3037.5925" y2="2315.6904">
					<stop  offset="0" style="stop-color:#FEBBBA"/>
					<stop  offset="1" style="stop-color:#FF928E"/>
				</linearGradient>
				<path class="st21" d="M2955.6,2776.1l-5.6,33.1c0,0,18.9,191,22.2,267.4c0.5,12-2.6,23.8-8.9,34l-32.8,53.2l83.3-49.2l1.7-10.2
					l-13.6-18.8l17.9-214c1-12.6-1.5-25.2-7.5-36.3l-17.2-32.4L2955.6,2776.1z"/>
				<linearGradient id="SVGID_11_" gradientUnits="userSpaceOnUse" x1="2988.5071" y1="2806.9922" x2="2966.7144" y2="3201.6755">
					<stop  offset="0" style="stop-color:#4F52FF"/>
					<stop  offset="1" style="stop-color:#4042E2"/>
				</linearGradient>
				<path class="st22" d="M2925,3171.7h26.6c5,0,9.7-2.3,12.7-6.2c8.3-10.8,25.5-31.8,33.7-32.3c11.1-0.7,9.6,38.6,9.6,38.6h6.2
					l7.9-48.8c2-12.3-4.1-24.5-15.2-30.2l0,0c0,0-2.5,18.7-16.2,27c-13.7,8.3-55.8,37.9-55.8,37.9s-5.2-0.7-10.8,0.3
					C2915.3,3159.2,2916.5,3171.7,2925,3171.7z"/>
				<linearGradient id="SVGID_12_" gradientUnits="userSpaceOnUse" x1="3131.2241" y1="3413.6025" x2="3223.8101" y2="2331.5032">
					<stop  offset="0" style="stop-color:#FEBBBA"/>
					<stop  offset="1" style="stop-color:#FF928E"/>
				</linearGradient>
				<path class="st23" d="M3069.7,2791.9c0,0,110.5,209.6,128,257.4c17.6,47.8,23.7,87.8,23.9,91.5c0.4,5.9,7.7,11.6,28,11.6
					c10.5,0,15.6-4.2,18.1-8.2c2.1-3.5,2.2-7.8,0.4-11.4c-6.4-12.9-26.7-54.3-34.2-73c-9-22.4-28.3-123.8-38.8-159.1
					c-10.6-35.3-22.5-73.5-68.6-108.8C3126.6,2791.9,3094.9,2760.9,3069.7,2791.9z"/>
				<linearGradient id="SVGID_13_" gradientUnits="userSpaceOnUse" x1="3096.6531" y1="2116.7656" x2="2817.1501" y2="2507.3525">
					<stop  offset="0" style="stop-color:#FF928E"/>
					<stop  offset="1" style="stop-color:#FE7062"/>
				</linearGradient>
				<path class="st24" d="M2999.9,2448.5c-16.2-68.6,0.1-120.2,17.2-152.1c13.6-25.4,4-56.8-21.5-70.1c-40-20.8-80.5-30.5-80.5-30.5
					s-79.2,57.9-69.8,103.2c5.5,26.6,55.7,159.1,55.7,159.1S2947.3,2480.1,2999.9,2448.5z"/>
				<linearGradient id="SVGID_14_" gradientUnits="userSpaceOnUse" x1="3251.1921" y1="2308.6377" x2="2753.2585" y2="2980.0945">
					<stop  offset="0" style="stop-color:#4F52FF"/>
					<stop  offset="1" style="stop-color:#4042E2"/>
				</linearGradient>
				<path class="st25" d="M3063.1,2508.3c-11.6-34.9-63.2-59.8-63.2-59.8c-52.6,31.6-99,9.6-99,9.6s-10.4,39.8-3.2,76.7
					c7.2,36.9,52.2,274.4,52.2,274.4c71,14.4,180.1-14.5,180.1-14.5C3084.9,2714.5,3074.7,2543.2,3063.1,2508.3z"/>
				<linearGradient id="SVGID_15_" gradientUnits="userSpaceOnUse" x1="2934.8799" y1="2331.1602" x2="2952.2673" y2="2203.958">
					<stop  offset="0" style="stop-color:#FEBBBA"/>
					<stop  offset="1" style="stop-color:#FF928E"/>
				</linearGradient>
				<path class="st26" d="M2966.9,2116l23.2,104.1c2.2,9.2-6.1,7.7-15.4,5.9c-15.2-2.9-34.7-8.8-41.3-20.6c-0.7-1.2-1-2.6-1.2-3.9
					l-10-72.2c-0.8-5.7,2.3-11.3,7.6-13.6l19.2-8.5C2956.4,2103.9,2965,2108.1,2966.9,2116z"/>
				<linearGradient id="SVGID_16_" gradientUnits="userSpaceOnUse" x1="2842.9712" y1="2033.7372" x2="2826.6238" y2="2436.1282">
					<stop  offset="0" style="stop-color:#FEBBBA"/>
					<stop  offset="1" style="stop-color:#FF928E"/>
				</linearGradient>
				<path class="st27" d="M2677.3,2047.3c0,0,61,211.8,306.9,191.9c15.7-1.3,29.6,10.4,30.8,26.1l0.7,8.5
					c1.8,22.8-16.8,42-39.7,40.9c-81.8-4.1-257.4-36.3-317.6-230.6L2677.3,2047.3z"/>
				<linearGradient id="SVGID_17_" gradientUnits="userSpaceOnUse" x1="2660.292" y1="2030.2734" x2="2645.063" y2="2405.1367">
					<stop  offset="0" style="stop-color:#FEBBBA"/>
					<stop  offset="1" style="stop-color:#FF928E"/>
				</linearGradient>
				<path class="st28" d="M2658.3,2084.1c0,0-11.7-34.5-14.7-56c-2.9-21.6,7.9-69.9,17.2-83.5c9.3-13.6,10.9,19.7,15.1,35.4
					c4.2,15.7-2.9,38-2.9,38l4.3,29.3L2658.3,2084.1z"/>
				<g>
					
						<linearGradient id="SVGID_18_" gradientUnits="userSpaceOnUse" x1="-5372.228" y1="2902.0989" x2="-5255.7896" y2="3035.9717" gradientTransform="matrix(0.9653 0.2612 -0.2612 0.9653 8856.9795 649.0368)">
						<stop  offset="0" style="stop-color:#FEBBBA"/>
						<stop  offset="1" style="stop-color:#FF928E"/>
					</linearGradient>
					<path class="st29" d="M2919.3,2030.1c0,0-58.6,85.3-22.2,109.1c36.4,23.8,78.1-36.9,78.1-36.9s13.1-46.4-1.8-61.7
						C2958.6,2025.3,2919.3,2030.1,2919.3,2030.1z"/>
					
						<linearGradient id="SVGID_19_" gradientUnits="userSpaceOnUse" x1="2815.1936" y1="2463.6357" x2="3062.7544" y2="1861.9893" gradientTransform="matrix(0.9998 -1.890000e-02 1.890000e-02 0.9998 -59.5478 19.4772)">
						<stop  offset="0" style="stop-color:#09005D"/>
						<stop  offset="1" style="stop-color:#1A0F91"/>
					</linearGradient>
					<path class="st30" d="M2943.9,2009.4c0,0-25.5,6.5-28.9,18.2c-3.4,11.7,36.7,21.6,47.9,22l9.9,46.6c0,0,25.8-44.5,14.8-69.7
						C2976.6,2001.3,2943.9,2009.4,2943.9,2009.4z"/>
					
						<linearGradient id="SVGID_20_" gradientUnits="userSpaceOnUse" x1="-5343.1362" y1="2876.7949" x2="-5226.6992" y2="3010.666" gradientTransform="matrix(0.9653 0.2612 -0.2612 0.9653 8856.9795 649.0368)">
						<stop  offset="0" style="stop-color:#FEBBBA"/>
						<stop  offset="1" style="stop-color:#FF928E"/>
					</linearGradient>
					<path class="st31" d="M2963.6,2096.4c0,0,22.9-27.6,32.6-10.1c9.6,17.5-20.5,31.4-31.2,22.9L2963.6,2096.4z"/>
				</g>
			</g>
		</g>
		<g>
			<g>
				<g>
					<path class="st2" d="M772.1,2914.6l932.7,0v-151.5l-932.7,0C792.1,2763.1,792.1,2914.6,772.1,2914.6z"/>
					<linearGradient id="SVGID_21_" gradientUnits="userSpaceOnUse" x1="1243.2887" y1="1877.3219" x2="1253.3832" y2="2398.8752">
						<stop  offset="0" style="stop-color:#FF928E"/>
						<stop  offset="1" style="stop-color:#FE7062"/>
					</linearGradient>
					<path class="st32" d="M1704.8,2876.6v-69.3c0-24.4-18.4-44.2-41.2-44.2H776c-17.9,0-32.4-11.8-32.4-26.3c0-4.4,4.4-8,9.8-8
						h970.1c22.2,0,57.6,28.4,57.6,63.4v96.8c0,33-34.3,59.8-55.3,59.8H758.6c-8.3,0-14.9-5.4-14.9-12.1c0-12.2,12.2-22.1,27.3-22.1
						h898.6C1689,2914.6,1704.8,2897.6,1704.8,2876.6z"/>
				</g>
				<path class="st33" d="M1678.9,2797.5H804.4c-1.9,0-3.4-1.5-3.4-3.4c0-1.9,1.5-3.4,3.4-3.4h874.5c1.9,0,3.4,1.5,3.4,3.4
					C1682.3,2796,1680.8,2797.5,1678.9,2797.5z"/>
				<path class="st33" d="M1678.9,2820H804.4c-1.9,0-3.4-1.5-3.4-3.4s1.5-3.4,3.4-3.4h874.5c1.9,0,3.4,1.5,3.4,3.4
					S1680.8,2820,1678.9,2820z"/>
				<path class="st33" d="M1678.9,2842.5H804.4c-1.9,0-3.4-1.5-3.4-3.4c0-1.9,1.5-3.4,3.4-3.4h874.5c1.9,0,3.4,1.5,3.4,3.4
					C1682.3,2841,1680.8,2842.5,1678.9,2842.5z"/>
				<path class="st33" d="M1678.9,2865H804.4c-1.9,0-3.4-1.5-3.4-3.4c0-1.9,1.5-3.4,3.4-3.4h874.5c1.9,0,3.4,1.5,3.4,3.4
					C1682.3,2863.5,1680.8,2865,1678.9,2865z"/>
				<path class="st33" d="M1678.9,2887.5H804.4c-1.9,0-3.4-1.5-3.4-3.4c0-1.9,1.5-3.4,3.4-3.4h874.5c1.9,0,3.4,1.5,3.4,3.4
					C1682.3,2886,1680.8,2887.5,1678.9,2887.5z"/>
			</g>
			<g>
				<linearGradient id="SVGID_22_" gradientUnits="userSpaceOnUse" x1="1232.5461" y1="3862.71" x2="1203.0708" y2="3261.8696">
					<stop  offset="0" style="stop-color:#4F52FF"/>
					<stop  offset="1" style="stop-color:#4042E2"/>
				</linearGradient>
				<path class="st34" d="M1801.7,3204H586.3c-8.1,0-14.7-6.6-14.7-14.7v-223.8c0-8.1,6.6-14.7,14.7-14.7h1215.4
					c8.1,0,14.7,6.6,14.7,14.7v223.8C1816.4,3197.5,1809.8,3204,1801.7,3204z"/>
				<path class="st35" d="M834.2,3174.9h-97.5c-13.5,0-24.4-10.9-24.4-24.4v-146.2c0-13.5,10.9-24.4,24.4-24.4h97.5
					c13.5,0,24.4,10.9,24.4,24.4v146.2C858.5,3164,847.6,3174.9,834.2,3174.9z"/>
				<path class="st35" d="M915.1,3174.9h-15.2c-10.9,0-19.8-8.9-19.8-19.8v-155.3c0-10.9,8.9-19.8,19.8-19.8h15.2
					c10.9,0,19.8,8.9,19.8,19.8v155.3C934.9,3166.1,926,3174.9,915.1,3174.9z"/>
			</g>
		</g>
		<g>
			<g>
				
					<linearGradient id="SVGID_23_" gradientUnits="userSpaceOnUse" x1="1523.502" y1="1256.5494" x2="1405.1764" y2="1500.4447" gradientTransform="matrix(0.987 0.1608 -0.1608 0.987 126.9837 357.2448)">
					<stop  offset="0" style="stop-color:#09005D"/>
					<stop  offset="1" style="stop-color:#1A0F91"/>
				</linearGradient>
				<path class="st36" d="M1201.3,2047.7c-0.6,1.1-38.7,29.1-38.7,29.1s8.4,60.1,42.5,83.9c37.5,26.1,90.5-21.5,90.5-21.5
					s42.2,10,64.6-77.7c5.1-20.1-24.6-21.8-60.4-18.1C1253.7,2048.1,1201.3,2047.7,1201.3,2047.7z"/>
				<linearGradient id="SVGID_24_" gradientUnits="userSpaceOnUse" x1="1595.9913" y1="1592.9899" x2="1313.3422" y2="2286.1536">
					<stop  offset="0" style="stop-color:#FF928E"/>
					<stop  offset="1" style="stop-color:#FE7062"/>
				</linearGradient>
				<path class="st37" d="M1130.2,2252.8c14.9-10.2,31.3-18,48.8-22.7c6.6-1.8,41.9,8.5,63.8,8c30-0.7,60.6-14.4,85.3-8.2
					c24.6,6.1,44.7,14.1,56.3,22.4c34.8,24.7,55.2,70.9,67.6,116.5c-23.6,24.2-53.2,34.9-53.2,34.9l-5.5,222.1l-131.3,67.2
					l-149.9-75.3l5.4-217c0,0-47.6-22.2-51.1-30.2C1063,2362.5,1088.2,2281.7,1130.2,2252.8z"/>
				<linearGradient id="SVGID_25_" gradientUnits="userSpaceOnUse" x1="1036.1539" y1="2322.0222" x2="1285.693" y2="2924.8049">
					<stop  offset="0" style="stop-color:#FEBBBA"/>
					<stop  offset="1" style="stop-color:#FF928E"/>
				</linearGradient>
				<path class="st38" d="M1068.7,2369.6c0,0-63.8,176.8,81.7,249.5c30.2-4,18.6-54.2,18.6-54.2s-63.2-14-44.2-161.5
					C1107.3,2389,1068.7,2369.6,1068.7,2369.6z"/>
				
					<linearGradient id="SVGID_26_" gradientUnits="userSpaceOnUse" x1="-5645.6021" y1="2320.7263" x2="-5396.063" y2="2923.509" gradientTransform="matrix(-1 0 0 1 -4167.0742 0)">
					<stop  offset="0" style="stop-color:#FEBBBA"/>
					<stop  offset="1" style="stop-color:#FF928E"/>
				</linearGradient>
				<path class="st39" d="M1449.1,2369.6c0,0,43.9,184.6-81.7,249.5c-30.2-4-18.6-54.2-18.6-54.2s50.9-25.1,44.2-161.5
					C1410.5,2389,1449.1,2369.6,1449.1,2369.6z"/>
				<linearGradient id="SVGID_27_" gradientUnits="userSpaceOnUse" x1="1257.8115" y1="2399.926" x2="1244.8403" y2="2925.2715">
					<stop  offset="0" style="stop-color:#09005D"/>
					<stop  offset="1" style="stop-color:#1A0F91"/>
				</linearGradient>
				<path class="st40" d="M1390.1,2631.5h-271.3c-4.6,0-8.3-3.8-8.3-8.3v-177.8c0-4.6,3.8-8.3,8.3-8.3h271.3c4.6,0,8.3,3.8,8.3,8.3
					v177.8C1398.5,2627.7,1394.7,2631.5,1390.1,2631.5z"/>
				<g>
					
						<linearGradient id="SVGID_28_" gradientUnits="userSpaceOnUse" x1="1418.7576" y1="2688.2917" x2="1555.1219" y2="2688.2917" gradientTransform="matrix(1 7.700000e-03 -7.700000e-03 1 9.5247 16.8137)">
						<stop  offset="0" style="stop-color:#09005D"/>
						<stop  offset="1" style="stop-color:#1A0F91"/>
					</linearGradient>
					<path class="st41" d="M1524.8,2689.1c-33-7.6-109.1-3.5-109.1-3.5l-3.1,8.4l-5.1,41.7c0,0,72.5,13.1,108.3,13
						c3.6,0,7-0.6,10-1.5c1.1-1,2.2-2,3.2-3.1C1544.1,2727.6,1539.7,2703.3,1524.8,2689.1z"/>
					<linearGradient id="SVGID_29_" gradientUnits="userSpaceOnUse" x1="1497.5878" y1="2470.1592" x2="1353.6458" y2="2860.0417">
						<stop  offset="0" style="stop-color:#FEBBBA"/>
						<stop  offset="1" style="stop-color:#FF928E"/>
					</linearGradient>
					<path class="st42" d="M1393.8,2683.3l12.9,0.6c6.9,0.3,13.5,3.7,18.1,9.4c4.7,5.7,7.1,13.2,6.6,20.9c-0.3,6.1-2.8,11.8-7,15.9
						c-4.1,4.1-9.6,6.1-15.1,5.7l-19.7-1.4L1393.8,2683.3z"/>
				</g>
				<g>
					
						<linearGradient id="SVGID_30_" gradientUnits="userSpaceOnUse" x1="-5944.7764" y1="2647.8306" x2="-5808.3545" y2="2647.8306" gradientTransform="matrix(-0.9998 -2.000000e-02 -2.000000e-02 0.9998 -4813.9961 -50.8396)">
						<stop  offset="0" style="stop-color:#09005D"/>
						<stop  offset="1" style="stop-color:#1A0F91"/>
					</linearGradient>
					<path class="st43" d="M960.1,2685.1c33.1-6.6,109.2-0.1,109.2-0.1l2.9,8.5l4.1,41.8c0,0-72.8,10.8-108.6,9.7
						c-3.6-0.1-7-0.8-10-1.8c-1.1-1-2.1-2.1-3.1-3.2C939.8,2723,944.8,2698.8,960.1,2685.1z"/>
					<linearGradient id="SVGID_31_" gradientUnits="userSpaceOnUse" x1="1209.1971" y1="2352.668" x2="1065.1794" y2="2742.7556">
						<stop  offset="0" style="stop-color:#FEBBBA"/>
						<stop  offset="1" style="stop-color:#FF928E"/>
					</linearGradient>
					<path class="st44" d="M1091.2,2683.3l-12.9,0.2c-6.9,0.1-13.5,3.3-18.3,8.8c-4.8,5.6-7.4,13-7.2,20.7
						c0.2,6.1,2.5,11.9,6.6,16.1c4,4.2,9.4,6.4,14.9,6.2l19.8-0.8L1091.2,2683.3z"/>
				</g>
				<linearGradient id="SVGID_32_" gradientUnits="userSpaceOnUse" x1="1558.5984" y1="2462.6335" x2="1184.4019" y2="2743.7283">
					<stop  offset="0" style="stop-color:#4F52FF"/>
					<stop  offset="1" style="stop-color:#4042E2"/>
				</linearGradient>
				<path class="st45" d="M1534,2558.4c-14.9-34.4-51.5-40-82.6-23.9c-0.5,0.7-197.6,101.7-371.3,145.9c5,15.9,7.5,32.9,8.1,49.6
					c0.1,3.7,0,7.4-0.2,11c133.2-6.8,277.9-51.3,402.1-90.3C1528.6,2638.3,1550.6,2596.5,1534,2558.4z"/>
				<linearGradient id="SVGID_33_" gradientUnits="userSpaceOnUse" x1="1220.2102" y1="2714.7478" x2="1122.1385" y2="2464.6653">
					<stop  offset="0" style="stop-color:#4F52FF"/>
					<stop  offset="1" style="stop-color:#4042E2"/>
				</linearGradient>
				<path class="st46" d="M1394.7,2732.7c-0.5-19.2,3.2-37.1,11.2-53.7c0.2-0.8,0.5-1.5,0.7-2.2c-9.9-3.1-22.7-7.2-39.6-12.9
					c-123.4-42.2-217.5-84.9-307.3-133.9c-34.9-19.1-74.6-6.3-85.8,35c-10,36.9,11.9,68.3,45.2,79.4c99.4,33.1,47.7,23.9,80.1,34.4
					c87.2,27,195.8,51.5,295.6,58.2C1394.9,2735.5,1394.8,2734.1,1394.7,2732.7z"/>
				<linearGradient id="SVGID_34_" gradientUnits="userSpaceOnUse" x1="1255.2135" y1="2371.7922" x2="1251.8932" y2="2082.9077">
					<stop  offset="0" style="stop-color:#FEBBBA"/>
					<stop  offset="1" style="stop-color:#FF928E"/>
				</linearGradient>
				<path class="st47" d="M1179,2230.1c0,0,13.3,57.5,77.7,56.3c65.6-1.2,71.5-56.5,71.5-56.5l-42.9-9.2l-3.6-47.8l-64.5,4.8
					l-1.2,45.4L1179,2230.1z"/>
				
					<linearGradient id="SVGID_35_" gradientUnits="userSpaceOnUse" x1="1402.1786" y1="1650.1709" x2="1412.5216" y2="1398.7914" gradientTransform="matrix(0.987 0.1608 -0.1608 0.987 126.9837 357.2448)">
					<stop  offset="0" style="stop-color:#FEBBBA"/>
					<stop  offset="1" style="stop-color:#FF928E"/>
				</linearGradient>
				<path class="st48" d="M1226.3,2037.6c0,0-73.9,143.1,13.8,177.9c61.8,24.5,100.6-95,89-127.4c-17.9-50.1-29.6-44.1-29.6-44.1
					L1226.3,2037.6z"/>
				
					<linearGradient id="SVGID_36_" gradientUnits="userSpaceOnUse" x1="1524.3689" y1="1222.2238" x2="1391.2272" y2="1496.6584" gradientTransform="matrix(0.987 0.1608 -0.1608 0.987 126.9837 357.2448)">
					<stop  offset="0" style="stop-color:#09005D"/>
					<stop  offset="1" style="stop-color:#1A0F91"/>
				</linearGradient>
				<path class="st49" d="M1346.9,2024.6c36.5,10,5.3,89.2-49.7,70.5c-55-18.7-76.6-18.4-85.1-3.4c-8.6,15.1-10.4,68.7-29,42.2
					c-20.4-29-31.7-87.3-6.8-106.1c22.3-16.8,27.5-42.8,54.3-41.9c35.5,1.2,63-14.6,79.1-3.2
					C1328.1,1995.7,1320,2017.2,1346.9,2024.6z"/>
				
					<linearGradient id="SVGID_37_" gradientUnits="userSpaceOnUse" x1="900.1004" y1="2603.22" x2="916.3088" y2="2209.2859" gradientTransform="matrix(0.9911 -0.1329 0.1329 0.9911 -26.0254 -216.2621)">
					<stop  offset="0" style="stop-color:#FEBBBA"/>
					<stop  offset="1" style="stop-color:#FF928E"/>
				</linearGradient>
				<path class="st50" d="M1208.7,2104c0,0-15.8-17-18.3,3.5c-2.5,20.4,5.6,46.8,15.1,32.3C1215,2125.4,1208.7,2104,1208.7,2104z"/>
			</g>
			<path class="st2" d="M1271.5,2519c1.5,10.3-4,19.7-14.3,21.2c-10.3,1.5-19.9-5.6-21.4-15.9c-1.5-10.3,3.2-20.6,13.5-22.1
				C1259.5,2500.7,1270,2508.7,1271.5,2519z"/>
		</g>
		<g>
			<circle class="st0" cx="1073.4" cy="1638.3" r="337"/>
			<g>
				<path class="st2" d="M795.6,1621.9l70.7-36.9v15.7c0,1.2-0.3,2.3-0.9,3.3c-0.6,1-1.6,1.8-2.9,2.5l-32.4,16.6
					c-1.4,0.7-2.8,1.3-4.3,1.8c-1.5,0.5-3.1,1-4.9,1.4c1.7,0.4,3.3,0.9,4.9,1.4c1.5,0.5,3,1.1,4.3,1.8l32.4,16.7
					c1.4,0.7,2.4,1.6,2.9,2.5c0.6,1,0.9,2.1,0.9,3.3v15.7l-70.7-37V1621.9z"/>
				<path class="st2" d="M898.6,1686.5v-132.7h22.1v51c3.6-3.4,7.5-6.1,11.8-8.2c4.3-2.1,9.3-3.1,15.1-3.1c5,0,9.4,0.8,13.3,2.5
					c3.9,1.7,7.1,4.1,9.7,7.1c2.6,3.1,4.6,6.7,5.9,11c1.3,4.3,2,8.9,2,14.1v58.3h-22.1v-58.3c0-5.6-1.3-9.9-3.9-13
					c-2.6-3.1-6.5-4.6-11.7-4.6c-3.8,0-7.4,0.9-10.7,2.6c-3.3,1.7-6.5,4.1-9.5,7.1v66.3H898.6z"/>
				<path class="st2" d="M1030.2,1687.9c-7.9,0-14-2.2-18.3-6.7c-4.3-4.5-6.4-10.7-6.4-18.6v-51.2h-9.3c-1.2,0-2.2-0.4-3.1-1.2
					c-0.9-0.8-1.3-1.9-1.3-3.5v-8.7l14.7-2.4l4.6-25c0.2-1.2,0.8-2.1,1.7-2.8c0.9-0.7,1.9-1,3.3-1h11.4v28.8h24.1v15.7h-24.1v49.6
					c0,2.9,0.7,5.1,2.1,6.7c1.4,1.6,3.3,2.4,5.7,2.4c1.4,0,2.5-0.2,3.4-0.5c0.9-0.3,1.7-0.7,2.4-1c0.7-0.4,1.3-0.7,1.8-1
					c0.5-0.3,1.1-0.5,1.6-0.5c0.7,0,1.2,0.2,1.6,0.5c0.4,0.3,0.9,0.8,1.3,1.5l6.6,10.7c-3.2,2.7-6.9,4.7-11.1,6.1
					C1039,1687.2,1034.7,1687.9,1030.2,1687.9z"/>
				<path class="st2" d="M1069.2,1686.5v-91.6h13.5c2.9,0,4.7,1.3,5.6,4l1.4,6.8c1.6-1.8,3.3-3.4,5-4.9c1.8-1.5,3.6-2.8,5.6-3.8
					c2-1.1,4.1-1.9,6.4-2.5c2.3-0.6,4.8-0.9,7.5-0.9c5.8,0,10.5,1.6,14.2,4.7c3.7,3.1,6.5,7.3,8.3,12.5c1.4-3,3.2-5.6,5.4-7.8
					c2.1-2.2,4.5-3.9,7.1-5.3c2.6-1.4,5.3-2.4,8.2-3c2.9-0.7,5.8-1,8.7-1c5.1,0,9.6,0.8,13.5,2.3c3.9,1.5,7.2,3.8,9.9,6.8
					c2.7,3,4.7,6.6,6.1,10.9c1.4,4.3,2.1,9.2,2.1,14.7v58.3h-22.1v-58.3c0-5.8-1.3-10.2-3.8-13.2c-2.6-2.9-6.3-4.4-11.3-4.4
					c-2.3,0-4.4,0.4-6.3,1.2c-1.9,0.8-3.6,1.9-5.1,3.3c-1.5,1.5-2.6,3.3-3.4,5.5c-0.8,2.2-1.2,4.7-1.2,7.6v58.3h-22.1v-58.3
					c0-6.1-1.2-10.6-3.7-13.4c-2.5-2.8-6.1-4.2-10.9-4.2c-3.2,0-6.1,0.8-8.9,2.4c-2.8,1.6-5.3,3.7-7.7,6.5v67.1H1069.2z"/>
				<path class="st2" d="M1243.1,1553.8v132.7H1221v-132.7H1243.1z"/>
				<path class="st2" d="M1276.7,1667.7V1652c0-1.2,0.3-2.3,0.9-3.3c0.6-1,1.6-1.8,2.9-2.5l32.4-16.7c2.6-1.3,5.7-2.4,9.2-3.2
					c-1.7-0.4-3.3-0.9-4.9-1.4c-1.5-0.5-3-1.1-4.3-1.8l-32.4-16.6c-1.4-0.7-2.4-1.6-2.9-2.5c-0.6-1-0.9-2.1-0.9-3.3V1585l70.7,36.9
					v8.9L1276.7,1667.7z"/>
			</g>
		</g>
		<g>
			<circle class="st0" cx="1846.5" cy="1420.6" r="296.9"/>
			<g>
				<path class="st2" d="M1689.6,1421.1l85.8-44.7v19.1c0,1.4-0.4,2.8-1.1,4c-0.7,1.2-1.9,2.2-3.6,3.1l-39.3,20.1
					c-1.7,0.9-3.4,1.6-5.3,2.2c-1.8,0.6-3.8,1.2-5.9,1.7c2.1,0.5,4.1,1.1,5.9,1.7c1.8,0.6,3.6,1.4,5.3,2.2l39.3,20.3
					c1.7,0.9,2.9,1.9,3.6,3.1c0.7,1.2,1.1,2.5,1.1,3.9v19.1l-85.8-44.9V1421.1z"/>
				<path class="st2" d="M1823.8,1499.8c-0.6,1.7-1.5,3.1-2.5,4.3c-1,1.2-2.2,2.3-3.5,3.1s-2.7,1.5-4.1,1.9
					c-1.4,0.4-2.9,0.7-4.2,0.7h-11.3l63.3-161.8c1.2-3,3-5.4,5.3-7c2.3-1.6,5.1-2.4,8.3-2.4h11.4L1823.8,1499.8z"/>
				<path class="st2" d="M1908.8,1476.8v-19.1c0-1.4,0.4-2.8,1.1-3.9c0.7-1.2,1.9-2.2,3.6-3.1l39.3-20.3c3.2-1.6,6.9-2.9,11.2-3.9
					c-2.1-0.5-4.1-1.1-5.9-1.7c-1.8-0.6-3.6-1.4-5.3-2.2l-39.3-20.1c-1.7-0.9-2.9-1.9-3.6-3.1c-0.7-1.2-1.1-2.5-1.1-4v-19.1
					l85.8,44.7v10.8L1908.8,1476.8z"/>
			</g>
		</g>
		<g>
			<g class="st51">
				<linearGradient id="SVGID_38_" gradientUnits="userSpaceOnUse" x1="3177.5369" y1="1586.2595" x2="3190.1973" y2="1586.2595">
					<stop  offset="0" style="stop-color:#4F52FF"/>
					<stop  offset="1" style="stop-color:#4042E2"/>
				</linearGradient>
				<path class="st52" d="M3180.9,1592.6c-0.9,0-1.7-0.3-2.4-1c-1.3-1.3-1.3-3.5,0.1-4.8c2-1.9,3.9-3.9,5.9-5.9
					c1.3-1.3,3.4-1.4,4.8-0.1c1.3,1.3,1.4,3.4,0.1,4.8c-2,2-4,4-6,6C3182.6,1592.3,3181.7,1592.6,3180.9,1592.6z"/>
				<linearGradient id="SVGID_39_" gradientUnits="userSpaceOnUse" x1="2648.7444" y1="1520.7528" x2="3172.0527" y2="1520.7528">
					<stop  offset="0" style="stop-color:#4F52FF"/>
					<stop  offset="1" style="stop-color:#4042E2"/>
				</linearGradient>
				<path class="st53" d="M2971.1,1681.2c-1.8,0-3.3-1.5-3.4-3.3c0-1.9,1.4-3.4,3.3-3.4c5.4-0.1,11-0.4,16.4-0.8
					c1.8-0.1,3.5,1.2,3.6,3.1c0.1,1.9-1.2,3.5-3.1,3.6C2982.4,1680.8,2976.7,1681.1,2971.1,1681.2
					C2971.1,1681.2,2971.1,1681.2,2971.1,1681.2z M2954.4,1681.2c0,0-0.1,0-0.1,0c-5.6-0.2-11.2-0.5-16.8-0.9
					c-1.9-0.2-3.2-1.8-3.1-3.6c0.2-1.8,1.8-3.2,3.6-3.1c5.4,0.5,11,0.8,16.4,0.9c1.9,0.1,3.3,1.6,3.3,3.5
					C2957.7,1679.7,2956.2,1681.2,2954.4,1681.2z M3004.2,1678.6c-1.7,0-3.1-1.2-3.3-2.9c-0.2-1.8,1.1-3.5,2.9-3.8
					c5.4-0.7,10.9-1.6,16.3-2.6c1.8-0.3,3.6,0.9,3.9,2.7c0.3,1.8-0.9,3.6-2.7,3.9c-5.5,1-11.1,1.9-16.6,2.7
					C3004.5,1678.6,3004.4,1678.6,3004.2,1678.6z M2921.2,1678.4c-0.2,0-0.3,0-0.5,0c-5.6-0.8-11.1-1.7-16.6-2.7
					c-1.8-0.4-3-2.1-2.7-3.9c0.3-1.8,2.1-3,3.9-2.7c5.4,1,10.8,1.9,16.3,2.7c1.8,0.3,3.1,2,2.9,3.8
					C2924.3,1677.2,2922.9,1678.4,2921.2,1678.4z M3037,1672.4c-1.5,0-2.9-1-3.3-2.6c-0.4-1.8,0.7-3.6,2.5-4.1
					c5.3-1.3,10.6-2.8,15.9-4.3c1.8-0.5,3.7,0.5,4.2,2.2s-0.5,3.7-2.2,4.2c-5.4,1.6-10.8,3.1-16.2,4.4
					C3037.5,1672.4,3037.2,1672.4,3037,1672.4z M2888.5,1672.1c-0.3,0-0.5,0-0.8-0.1c-5.4-1.3-10.9-2.9-16.2-4.5
					c-1.8-0.5-2.8-2.4-2.2-4.2c0.5-1.8,2.4-2.8,4.2-2.2c5.2,1.6,10.6,3.1,15.9,4.4c1.8,0.4,2.9,2.3,2.5,4.1
					C2891.4,1671.1,2890,1672.1,2888.5,1672.1z M3068.8,1662.8c-1.4,0-2.7-0.9-3.2-2.2c-0.6-1.7,0.3-3.7,2-4.3
					c5.1-1.9,10.3-3.9,15.3-6c1.7-0.7,3.7,0.1,4.4,1.8c0.7,1.7-0.1,3.7-1.8,4.4c-5.2,2.2-10.4,4.3-15.7,6.1
					C3069.6,1662.7,3069.2,1662.8,3068.8,1662.8z M2856.7,1662.4c-0.4,0-0.8-0.1-1.2-0.2c-5.3-1.9-10.5-4-15.7-6.2
					c-1.7-0.7-2.5-2.7-1.8-4.4c0.7-1.7,2.7-2.5,4.4-1.8c5,2.1,10.2,4.2,15.3,6.1c1.7,0.6,2.6,2.6,2,4.3
					C2859.3,1661.5,2858,1662.4,2856.7,1662.4z M3099.5,1649.8c-1.2,0-2.4-0.7-3-1.9c-0.8-1.7-0.1-3.7,1.6-4.5
					c4.9-2.4,9.8-5,14.6-7.6c1.6-0.9,3.7-0.3,4.6,1.3c0.9,1.6,0.3,3.7-1.3,4.6c-4.9,2.7-9.9,5.3-14.9,7.8
					C3100.5,1649.7,3100,1649.8,3099.5,1649.8z M2826,1649.3c-0.5,0-1-0.1-1.5-0.3c-5-2.5-10-5.1-14.9-7.8c-1.6-0.9-2.2-3-1.3-4.6
					c0.9-1.6,2.9-2.2,4.6-1.3c4.8,2.7,9.7,5.2,14.6,7.6c1.7,0.8,2.4,2.8,1.5,4.5C2828.5,1648.6,2827.3,1649.3,2826,1649.3z
					 M3128.6,1633.7c-1.1,0-2.2-0.6-2.9-1.6c-1-1.6-0.5-3.7,1.1-4.6c4.6-2.9,9.3-6,13.7-9.1c1.5-1.1,3.6-0.7,4.7,0.8
					c1.1,1.5,0.7,3.6-0.8,4.7c-4.6,3.2-9.3,6.3-14,9.3C3129.9,1633.5,3129.3,1633.7,3128.6,1633.7z M2797,1633.1
					c-0.6,0-1.2-0.2-1.8-0.5c-4.7-3-9.4-6.1-14-9.4c-1.5-1.1-1.9-3.2-0.8-4.7c1.1-1.5,3.2-1.9,4.7-0.8c4.5,3.2,9.1,6.2,13.7,9.2
					c1.6,1,2,3.1,1,4.6C2799.2,1632.5,2798.1,1633.1,2797,1633.1z M3155.9,1614.6c-1,0-2-0.4-2.6-1.3c-1.1-1.5-0.9-3.6,0.6-4.7
					c4.3-3.4,8.6-6.9,12.7-10.5c1.4-1.2,3.5-1.1,4.7,0.3c1.2,1.4,1.1,3.5-0.3,4.7c-4.2,3.7-8.5,7.3-12.9,10.8
					C3157.3,1614.3,3156.6,1614.6,3155.9,1614.6z M2769.8,1613.8c-0.7,0-1.5-0.2-2.1-0.7c-4.4-3.5-8.7-7.1-12.9-10.8
					c-1.4-1.2-1.5-3.4-0.3-4.7c1.2-1.4,3.4-1.5,4.7-0.3c4.1,3.6,8.3,7.2,12.6,10.6c1.5,1.2,1.7,3.3,0.5,4.7
					C2771.8,1613.4,2770.8,1613.8,2769.8,1613.8z M2744.9,1591.8c-0.9,0-1.7-0.3-2.4-1c-4-3.9-7.9-8-11.7-12.1
					c-1.3-1.4-1.2-3.5,0.2-4.8c1.4-1.2,3.5-1.2,4.8,0.2c3.7,4,7.5,8,11.4,11.9c1.3,1.3,1.3,3.4,0,4.8
					C2746.6,1591.5,2745.8,1591.8,2744.9,1591.8z M2722.5,1567.2c-1,0-1.9-0.4-2.6-1.2c-3.5-4.3-7-8.8-10.3-13.3
					c-1.1-1.5-0.8-3.6,0.7-4.7c1.5-1.1,3.6-0.8,4.7,0.7c3.2,4.4,6.6,8.8,10.1,13c1.2,1.4,1,3.6-0.5,4.7
					C2724,1567,2723.3,1567.2,2722.5,1567.2z M2702.9,1540.3c-1.1,0-2.2-0.5-2.8-1.5c-3.1-4.7-6-9.5-8.8-14.3
					c-0.9-1.6-0.4-3.7,1.2-4.6c1.6-0.9,3.7-0.4,4.6,1.2c2.7,4.7,5.6,9.4,8.6,14c1,1.6,0.6,3.6-1,4.7
					C2704.1,1540.2,2703.5,1540.3,2702.9,1540.3z M2686.2,1511.5c-1.2,0-2.4-0.7-3-1.8c-1.2-2.3-2.4-4.7-3.5-7.1
					c-1.3-2.7-2.5-5.4-3.7-8.1c-0.8-1.7,0-3.7,1.7-4.4c1.7-0.8,3.7,0,4.4,1.7c1.2,2.6,2.4,5.3,3.7,7.9c1.1,2.3,2.3,4.7,3.4,7
					c0.8,1.7,0.2,3.7-1.5,4.5C2687.2,1511.4,2686.7,1511.5,2686.2,1511.5z M2672.6,1481.1c-1.4,0-2.6-0.8-3.1-2.2
					c-2-5.2-3.9-10.6-5.6-15.9c-0.6-1.8,0.4-3.7,2.2-4.2c1.8-0.6,3.7,0.4,4.2,2.2c1.7,5.2,3.5,10.4,5.5,15.5
					c0.7,1.7-0.2,3.7-1.9,4.3C2673.5,1481,2673,1481.1,2672.6,1481.1z M2662.4,1449.4c-1.5,0-2.8-1-3.2-2.5
					c-1.4-5.4-2.7-10.9-3.9-16.4c-0.4-1.8,0.8-3.6,2.6-4c1.8-0.4,3.6,0.8,4,2.6c1.1,5.4,2.4,10.8,3.8,16c0.5,1.8-0.6,3.6-2.4,4.1
					C2663,1449.4,2662.7,1449.4,2662.4,1449.4z M2655.6,1416.8c-1.6,0-3.1-1.2-3.3-2.9c-0.8-5.5-1.5-11.1-2.1-16.7
					c-0.2-1.8,1.2-3.5,3-3.7c1.9-0.2,3.5,1.2,3.7,3c0.5,5.4,1.2,10.9,2,16.3c0.3,1.8-1,3.6-2.8,3.8
					C2656,1416.8,2655.8,1416.8,2655.6,1416.8z M2652.4,1383.7c-1.8,0-3.3-1.4-3.4-3.2c-0.2-4.5-0.3-9-0.3-13.5l0-3.3
					c0-1.9,1.7-3.4,3.4-3.3c1.9,0,3.4,1.5,3.3,3.4l0,3.2c0,4.4,0.1,8.9,0.3,13.2c0.1,1.9-1.4,3.4-3.2,3.5
					C2652.5,1383.7,2652.4,1383.7,2652.4,1383.7z"/>
				<linearGradient id="SVGID_40_" gradientUnits="userSpaceOnUse" x1="2649.3977" y1="1342.6455" x2="2656.7859" y2="1342.6455">
					<stop  offset="0" style="stop-color:#4F52FF"/>
					<stop  offset="1" style="stop-color:#4042E2"/>
				</linearGradient>
				<path class="st54" d="M2652.8,1350.2c-0.1,0-0.1,0-0.2,0c-1.9-0.1-3.3-1.7-3.1-3.6c0.2-2.8,0.4-5.7,0.7-8.5
					c0.2-1.8,1.8-3.2,3.7-3c1.8,0.2,3.2,1.8,3,3.7c-0.3,2.8-0.5,5.5-0.7,8.3C2656,1348.8,2654.5,1350.2,2652.8,1350.2z"/>
			</g>
			<g class="st51">
				<linearGradient id="SVGID_41_" gradientUnits="userSpaceOnUse" x1="2755.5352" y1="1129.3409" x2="2768.6831" y2="1129.3409">
					<stop  offset="0" style="stop-color:#4F52FF"/>
					<stop  offset="1" style="stop-color:#4042E2"/>
				</linearGradient>
				<path class="st55" d="M2758.9,1135.4c-0.9,0-1.9-0.4-2.5-1.2c-1.2-1.4-1.1-3.5,0.3-4.7c2.1-1.9,4.3-3.7,6.5-5.5
					c1.4-1.2,3.6-1,4.7,0.5c1.2,1.4,1,3.6-0.5,4.7c-2.1,1.8-4.3,3.6-6.3,5.4C2760.5,1135.2,2759.7,1135.4,2758.9,1135.4z"/>
				<linearGradient id="SVGID_42_" gradientUnits="userSpaceOnUse" x1="2775.4888" y1="1219.65" x2="3277.8914" y2="1219.65">
					<stop  offset="0" style="stop-color:#4F52FF"/>
					<stop  offset="1" style="stop-color:#4042E2"/>
				</linearGradient>
				<path class="st56" d="M3274.1,1387c-0.1,0-0.1,0-0.2,0c-1.9-0.1-3.3-1.7-3.2-3.5c0.3-5.7,0.5-11.4,0.5-17c0-1.9,1.5-3.4,3.4-3.4
					s3.4,1.5,3.4,3.4c0,5.7-0.2,11.5-0.5,17.3C3277.3,1385.6,3275.8,1387,3274.1,1387z M3274,1352.7c-1.8,0-3.3-1.4-3.4-3.2
					c-0.3-5.6-0.8-11.3-1.4-16.9c-0.2-1.8,1.1-3.5,3-3.7c1.8-0.2,3.5,1.1,3.7,3c0.6,5.7,1.1,11.5,1.4,17.3c0.1,1.9-1.3,3.4-3.2,3.5
					C3274.2,1352.7,3274.1,1352.7,3274,1352.7z M3270.3,1318.7c-1.6,0-3-1.2-3.3-2.8c-0.9-5.5-2-11.1-3.3-16.6
					c-0.4-1.8,0.7-3.6,2.5-4c1.8-0.4,3.6,0.7,4,2.5c1.3,5.6,2.4,11.4,3.3,17c0.3,1.8-0.9,3.6-2.8,3.9
					C3270.6,1318.7,3270.4,1318.7,3270.3,1318.7z M3262.7,1285.2c-1.5,0-2.8-1-3.2-2.4c-1.5-5.4-3.3-10.9-5.1-16.2
					c-0.6-1.8,0.3-3.7,2.1-4.3c1.7-0.6,3.7,0.3,4.3,2.1c1.9,5.4,3.6,11,5.2,16.5c0.5,1.8-0.5,3.6-2.3,4.2
					C3263.3,1285.2,3263,1285.2,3262.7,1285.2z M3251.5,1252.8c-1.3,0-2.6-0.8-3.1-2.1c-2.1-5.2-4.4-10.4-6.8-15.5
					c-0.8-1.7-0.1-3.7,1.6-4.5c1.7-0.8,3.7-0.1,4.5,1.6c2.5,5.2,4.8,10.6,7,15.9c0.7,1.7-0.1,3.7-1.8,4.4
					C3252.4,1252.7,3251.9,1252.8,3251.5,1252.8z M3236.9,1221.8c-1.2,0-2.4-0.6-3-1.8c-2.7-4.9-5.5-9.9-8.5-14.7
					c-1-1.6-0.5-3.7,1.1-4.6c1.6-1,3.7-0.5,4.6,1.1c3,4.9,5.9,10,8.7,15c0.9,1.6,0.3,3.7-1.4,4.6
					C3237.9,1221.7,3237.4,1221.8,3236.9,1221.8z M3218.9,1192.6c-1.1,0-2.1-0.5-2.8-1.5c-3.2-4.6-6.6-9.2-10-13.7
					c-1.1-1.5-0.9-3.6,0.6-4.7c1.5-1.1,3.6-0.9,4.7,0.6c3.5,4.6,7,9.3,10.3,14c1.1,1.5,0.7,3.6-0.9,4.7
					C3220.2,1192.4,3219.6,1192.6,3218.9,1192.6z M3197.9,1165.5c-0.9,0-1.9-0.4-2.5-1.2c-3.7-4.2-7.5-8.4-11.5-12.5
					c-1.3-1.3-1.3-3.5,0.1-4.8c1.3-1.3,3.5-1.3,4.8,0.1c4,4.1,8,8.4,11.7,12.7c1.2,1.4,1.1,3.5-0.3,4.7
					C3199.4,1165.3,3198.7,1165.5,3197.9,1165.5z M3174,1141c-0.8,0-1.6-0.3-2.3-0.9c-4.1-3.8-8.4-7.5-12.8-11.1
					c-1.4-1.2-1.6-3.3-0.5-4.7c1.2-1.4,3.3-1.6,4.7-0.5c4.5,3.7,8.9,7.5,13.1,11.4c1.4,1.3,1.5,3.4,0.2,4.8
					C3175.8,1140.6,3174.9,1141,3174,1141z M2778.9,1119.5c-1,0-2.1-0.5-2.7-1.4c-1.1-1.5-0.8-3.6,0.7-4.7c4.6-3.4,9.4-6.7,14.2-9.9
					c1.6-1,3.6-0.6,4.7,1c1,1.6,0.6,3.6-1,4.7c-4.7,3.1-9.4,6.3-13.9,9.7C2780.2,1119.2,2779.5,1119.5,2778.9,1119.5z
					 M3147.5,1119.3c-0.7,0-1.4-0.2-2-0.7c-4.5-3.3-9.2-6.6-13.9-9.6c-1.6-1-2-3.1-1-4.7c1-1.6,3.1-2,4.7-1
					c4.8,3.1,9.6,6.5,14.3,9.9c1.5,1.1,1.8,3.2,0.7,4.7C3149.6,1118.8,3148.5,1119.3,3147.5,1119.3z M2807.6,1100.7
					c-1.2,0-2.3-0.6-2.9-1.7c-0.9-1.6-0.4-3.7,1.2-4.6c5-2.9,10.1-5.7,15.2-8.2c1.7-0.8,3.7-0.2,4.5,1.5c0.8,1.7,0.2,3.7-1.5,4.5
					c-5,2.5-10,5.3-14.9,8.1C2808.7,1100.6,2808.1,1100.7,2807.6,1100.7z M3118.8,1100.5c-0.6,0-1.1-0.1-1.7-0.4
					c-4.9-2.8-9.9-5.5-14.9-8.1c-1.7-0.8-2.3-2.9-1.5-4.5c0.8-1.7,2.9-2.3,4.5-1.5c5.1,2.6,10.3,5.4,15.3,8.2c1.6,0.9,2.2,3,1.2,4.6
					C3121.1,1099.9,3119.9,1100.5,3118.8,1100.5z M2838.2,1085.2c-1.3,0-2.5-0.8-3.1-2c-0.7-1.7,0-3.7,1.7-4.4
					c5.3-2.3,10.7-4.5,16-6.5c1.7-0.7,3.7,0.2,4.3,2c0.7,1.7-0.2,3.7-2,4.3c-5.3,2-10.6,4.1-15.7,6.4
					C2839.1,1085.1,2838.6,1085.2,2838.2,1085.2z M3088.2,1085.1c-0.5,0-0.9-0.1-1.3-0.3c-5.1-2.2-10.4-4.4-15.7-6.4
					c-1.7-0.7-2.6-2.6-2-4.3c0.7-1.7,2.6-2.6,4.3-2c5.4,2,10.8,4.2,16.1,6.5c1.7,0.7,2.5,2.7,1.7,4.4
					C3090.7,1084.3,3089.5,1085.1,3088.2,1085.1z M2870.3,1073.2c-1.4,0-2.8-0.9-3.2-2.4c-0.6-1.8,0.4-3.7,2.2-4.2
					c5.5-1.7,11.1-3.3,16.7-4.7c1.8-0.5,3.6,0.6,4.1,2.4c0.5,1.8-0.6,3.6-2.4,4.1c-5.5,1.4-11,3-16.3,4.6
					C2870.9,1073.1,2870.6,1073.2,2870.3,1073.2z M3056.1,1073.1c-0.3,0-0.7-0.1-1-0.2c-5.4-1.7-10.8-3.2-16.3-4.6
					c-1.8-0.5-2.9-2.3-2.4-4.1c0.5-1.8,2.3-2.9,4.1-2.4c5.6,1.4,11.2,3,16.7,4.7c1.8,0.6,2.8,2.4,2.2,4.2
					C3058.8,1072.2,3057.5,1073.1,3056.1,1073.1z M2903.5,1064.7c-1.6,0-3-1.1-3.3-2.7c-0.4-1.8,0.8-3.6,2.7-3.9
					c5.7-1.1,11.4-2.1,17.1-2.9c1.8-0.3,3.5,1,3.8,2.9c0.3,1.8-1,3.5-2.9,3.8c-5.6,0.8-11.2,1.7-16.7,2.8
					C2903.9,1064.7,2903.7,1064.7,2903.5,1064.7z M3022.8,1064.7c-0.2,0-0.4,0-0.7-0.1c-5.5-1.1-11.2-2-16.7-2.8
					c-1.8-0.3-3.1-2-2.9-3.8c0.3-1.8,2-3.1,3.8-2.9c5.7,0.8,11.4,1.8,17.1,2.9c1.8,0.4,3,2.1,2.7,3.9
					C3025.8,1063.6,3024.4,1064.7,3022.8,1064.7z M2988.9,1060c-0.1,0-0.2,0-0.3,0c-5.6-0.5-11.3-0.8-16.9-0.9
					c-1.9-0.1-3.3-1.6-3.3-3.5c0.1-1.9,1.7-3.3,3.5-3.3c5.8,0.2,11.6,0.5,17.3,1c1.9,0.2,3.2,1.8,3.1,3.6
					C2992.1,1058.6,2990.6,1060,2988.9,1060z M2937.4,1059.9c-1.7,0-3.2-1.3-3.3-3.1c-0.2-1.9,1.2-3.5,3.1-3.6
					c5.7-0.5,11.6-0.8,17.3-1c1.8-0.1,3.4,1.4,3.5,3.3c0,1.9-1.4,3.4-3.3,3.5c-5.6,0.2-11.3,0.5-16.9,0.9
					C2937.6,1059.9,2937.5,1059.9,2937.4,1059.9z"/>
				<linearGradient id="SVGID_43_" gradientUnits="userSpaceOnUse" x1="3268.1914" y1="1405.1436" x2="3275.9707" y2="1405.1436">
					<stop  offset="0" style="stop-color:#4F52FF"/>
					<stop  offset="1" style="stop-color:#4042E2"/>
				</linearGradient>
				<path class="st57" d="M3271.6,1412.7c-0.2,0-0.3,0-0.5,0c-1.8-0.3-3.1-2-2.9-3.8c0.4-2.7,0.7-5.5,1-8.2c0.2-1.8,1.8-3.2,3.7-3
					c1.8,0.2,3.2,1.9,3,3.7c-0.3,2.8-0.7,5.6-1.1,8.4C3274.7,1411.5,3273.2,1412.7,3271.6,1412.7z"/>
			</g>
			<g>
				<linearGradient id="SVGID_44_" gradientUnits="userSpaceOnUse" x1="2690.3416" y1="1367.9142" x2="3231.1038" y2="1367.9142">
					<stop  offset="0" style="stop-color:#4F52FF"/>
					<stop  offset="1" style="stop-color:#4042E2"/>
				</linearGradient>
				<path class="st58" d="M3230.8,1438.9c0.7-1.7,0.2-3.7-1.2-4.9l-40.2-34c3.4-24.4,3-49.4-1.6-74.3l38.6-35.8
					c1.4-1.3,1.8-3.2,1-4.9l-25.5-57.8c-0.7-1.7-2.5-2.7-4.3-2.6l-52.5,4.4c-15.2-20.2-33.4-37.5-53.7-51.4l2-52.6
					c0.1-1.8-1-3.5-2.8-4.2l-58.9-22.9c-1.7-0.7-3.7-0.2-4.9,1.2l-34,40.2c-24.4-3.4-49.4-3-74.3,1.6l-35.8-38.6
					c-1.3-1.4-3.2-1.8-4.9-1l-57.8,25.5c-1.7,0.7-2.7,2.5-2.6,4.3l4.4,52.5c-20.2,15.2-37.5,33.4-51.4,53.7l-52.6-2
					c-1.8-0.1-3.5,1-4.2,2.8l-22.9,58.9c-0.7,1.7-0.2,3.7,1.2,4.9l40.2,34c-3.4,24.4-3,49.4,1.6,74.3l-38.6,35.8
					c-1.4,1.3-1.8,3.2-1,4.9l25.5,57.8c0.7,1.7,2.5,2.7,4.3,2.6l52.5-4.4c15.2,20.2,33.4,37.5,53.7,51.4l-2,52.6
					c-0.1,1.8,1,3.5,2.8,4.2l58.9,22.9c1.7,0.7,3.7,0.2,4.9-1.2l34-40.2c24.4,3.4,49.4,3,74.3-1.6l35.8,38.6c1.3,1.4,3.2,1.8,4.9,1
					l57.8-25.5c1.7-0.7,2.7-2.5,2.6-4.3l-4.4-52.5c20.2-15.2,37.5-33.4,51.4-53.7l52.6,2c1.8,0.1,3.5-1,4.2-2.8L3230.8,1438.9z"/>
				<path class="st2" d="M2960.8,1427.4c-17.7,0-35.3-7.9-47-22.9c-20.2-25.9-15.5-63.3,10.3-83.5c12.5-9.8,28.1-14.1,43.9-12.1
					c15.8,2,29.8,9.9,39.6,22.5l0,0c9.8,12.5,14.1,28.1,12.1,43.9c-2,15.8-9.9,29.8-22.5,39.6
					C2986.4,1423.3,2973.6,1427.4,2960.8,1427.4z M2960.6,1315.2c-11.7,0-23,3.9-32.3,11.2c-22.9,17.9-27.1,51.1-9.2,74
					c17.9,22.9,51.1,27,74,9.2c11.1-8.7,18.2-21.1,19.9-35.1c1.7-14-2.1-27.8-10.7-38.9l0,0c-8.7-11.1-21.1-18.2-35.1-19.9
					C2965,1315.3,2962.8,1315.2,2960.6,1315.2z"/>
				<path class="st2" d="M2959.7,1523.4c-59.9,0-117.2-34.8-142.9-93c-9-20.4-13.2-41.7-13.2-62.6c0-59.9,34.8-117.2,93-142.8
					c38.1-16.8,80.5-17.7,119.3-2.6c38.8,15.1,69.4,44.4,86.2,82.5c4.5,10.2,7.9,20.8,10.1,31.6c0,0.2,0.1,0.5,0.1,0.7
					c0,1.6-1.1,3-2.7,3.3c-1.8,0.4-3.6-0.8-4-2.6c-2.1-10.3-5.4-20.5-9.7-30.2v0c-1-2.2-2-4.3-3-6.4c0,0,0,0,0,0
					c0-0.1-0.1-0.2-0.1-0.2c0,0,0,0,0,0c0,0,0,0,0,0c0,0,0,0,0,0c0,0,0,0,0-0.1c-16.6-33.1-44.5-58.6-79.3-72.1
					c-37.1-14.4-77.7-13.5-114.1,2.5c-55.8,24.6-89,79.3-89,136.7c0,20,4.1,40.4,12.6,59.9c33.1,75.3,121.3,109.5,196.6,76.4
					c24.7-10.9,46-28.3,61.6-50.2c1.1-1.5,3.2-1.9,4.7-0.8c0.9,0.7,1.4,1.7,1.4,2.8c0,0.7-0.2,1.3-0.6,1.9
					c-16.2,22.9-38.5,41.1-64.3,52.5C3001.9,1519.1,2980.6,1523.4,2959.7,1523.4z"/>
			</g>
		</g>
		<g>
			<g class="st51">
				<linearGradient id="SVGID_45_" gradientUnits="userSpaceOnUse" x1="2726.7896" y1="1196.8745" x2="2739.4712" y2="1196.8745">
					<stop  offset="0" style="stop-color:#4F52FF"/>
					<stop  offset="1" style="stop-color:#4042E2"/>
				</linearGradient>
				<path class="st59" d="M2730.2,1203.2c-0.9,0-1.8-0.3-2.4-1c-1.3-1.3-1.3-3.5,0.1-4.8c2-1.9,4-3.9,5.9-5.9
					c1.3-1.3,3.4-1.4,4.8-0.1c1.3,1.3,1.4,3.4,0.1,4.8c-2,2-4,4-6,6C2731.8,1202.9,2731,1203.2,2730.2,1203.2z"/>
				<linearGradient id="SVGID_46_" gradientUnits="userSpaceOnUse" x1="2305.2981" y1="1146.6323" x2="2720.8713" y2="1146.6323">
					<stop  offset="0" style="stop-color:#4F52FF"/>
					<stop  offset="1" style="stop-color:#4042E2"/>
				</linearGradient>
				<path class="st60" d="M2557.6,1272.9c-4.6,0-9.2-0.1-13.7-0.4c-1.9-0.1-3.3-1.7-3.2-3.5c0.1-1.9,1.7-3.3,3.5-3.2
					c5.6,0.3,11.2,0.4,16.8,0.3h0c1.8,0,3.3,1.5,3.4,3.3c0,1.9-1.5,3.4-3.3,3.4C2559.9,1272.9,2558.8,1272.9,2557.6,1272.9z
					 M2578.1,1272.1c-1.7,0-3.2-1.3-3.3-3.1c-0.2-1.9,1.2-3.5,3.1-3.6c5.6-0.5,11.2-1.1,16.7-2c1.8-0.3,3.6,1,3.8,2.8
					c0.3,1.8-1,3.6-2.8,3.8c-5.7,0.9-11.4,1.5-17.1,2C2578.3,1272.1,2578.2,1272.1,2578.1,1272.1z M2527.1,1271.1
					c-0.1,0-0.3,0-0.4,0c-5.7-0.7-11.4-1.6-17-2.7c-1.8-0.4-3-2.1-2.7-3.9c0.4-1.8,2.1-3,3.9-2.7c5.5,1.1,11,1.9,16.6,2.6
					c1.8,0.2,3.2,1.9,2.9,3.8C2530.2,1269.8,2528.8,1271.1,2527.1,1271.1z M2611.7,1266.9c-1.5,0-2.9-1.1-3.3-2.6
					c-0.4-1.8,0.7-3.6,2.5-4c5.4-1.2,10.9-2.7,16.2-4.2c1.8-0.5,3.7,0.5,4.2,2.3c0.5,1.8-0.5,3.7-2.3,4.2
					c-5.5,1.6-11.1,3.1-16.7,4.4C2612.2,1266.9,2611.9,1266.9,2611.7,1266.9z M2493.7,1264.6c-0.3,0-0.6,0-0.9-0.1
					c-5.5-1.5-11.1-3.1-16.5-5c-1.8-0.6-2.7-2.5-2.1-4.3c0.6-1.8,2.5-2.7,4.3-2.1c5.3,1.8,10.7,3.4,16.1,4.9
					c1.8,0.5,2.9,2.3,2.4,4.1C2496.6,1263.6,2495.2,1264.6,2493.7,1264.6z M2644.3,1257.2c-1.4,0-2.6-0.8-3.2-2.2
					c-0.7-1.7,0.2-3.7,2-4.3c5.2-1.9,10.4-4.1,15.5-6.4c1.7-0.8,3.7,0,4.5,1.7c0.8,1.7,0,3.7-1.7,4.5c-5.2,2.4-10.6,4.6-15.9,6.6
					C2645.1,1257.2,2644.7,1257.2,2644.3,1257.2z M2461.5,1253.6c-0.4,0-0.9-0.1-1.3-0.3c-5.3-2.2-10.5-4.6-15.7-7.2
					c-1.7-0.8-2.3-2.9-1.5-4.5c0.8-1.7,2.9-2.3,4.5-1.5c5,2.5,10.1,4.9,15.3,7c1.7,0.7,2.5,2.7,1.8,4.4
					C2464.1,1252.9,2462.8,1253.6,2461.5,1253.6z M2675.3,1243.2c-1.2,0-2.4-0.6-3-1.8c-0.9-1.6-0.3-3.7,1.4-4.6
					c4.9-2.6,9.8-5.5,14.5-8.4c1.6-1,3.6-0.5,4.6,1.1c1,1.6,0.5,3.7-1.1,4.6c-4.9,3-9.9,6-14.9,8.7
					C2676.4,1243,2675.8,1243.2,2675.3,1243.2z M2431.1,1238.4c-0.6,0-1.2-0.1-1.7-0.5c-4.9-2.9-9.8-6-14.6-9.3
					c-1.5-1-1.9-3.1-0.9-4.7c1-1.5,3.1-1.9,4.7-0.9c4.6,3.1,9.4,6.2,14.2,9c1.6,0.9,2.1,3,1.2,4.6
					C2433.4,1237.8,2432.2,1238.4,2431.1,1238.4z M2704.1,1225.1c-1,0-2.1-0.5-2.7-1.4c-1.1-1.5-0.8-3.6,0.7-4.7
					c4.5-3.3,9-6.8,13.2-10.3c1.4-1.2,3.6-1,4.7,0.4c1.2,1.4,1,3.5-0.4,4.7c-4.4,3.7-9,7.3-13.6,10.6
					C2705.5,1224.9,2704.8,1225.1,2704.1,1225.1z M2403,1219.2c-0.7,0-1.5-0.2-2.1-0.7c-4.5-3.6-8.9-7.3-13.2-11.2
					c-1.4-1.2-1.5-3.4-0.2-4.8c1.3-1.4,3.4-1.5,4.8-0.2c4.1,3.7,8.4,7.4,12.8,10.9c1.5,1.2,1.7,3.3,0.6,4.7
					C2405,1218.8,2404,1219.2,2403,1219.2z M2377.8,1196.3c-0.9,0-1.8-0.3-2.4-1c-4-4.1-7.8-8.5-11.5-12.9c-1.2-1.4-1-3.5,0.4-4.7
					c1.4-1.2,3.5-1,4.7,0.4c3.6,4.3,7.3,8.5,11.2,12.5c1.3,1.3,1.2,3.5-0.1,4.8C2379.5,1196,2378.7,1196.3,2377.8,1196.3z
					 M2356.1,1170.2c-1,0-2.1-0.5-2.7-1.4c-3.3-4.6-6.6-9.4-9.6-14.3c-1-1.6-0.5-3.7,1.1-4.6c1.6-1,3.6-0.5,4.6,1.1
					c3,4.7,6.1,9.4,9.4,13.9c1.1,1.5,0.7,3.6-0.8,4.7C2357.4,1170,2356.8,1170.2,2356.1,1170.2z M2338.1,1141.4
					c-1.2,0-2.4-0.6-3-1.8c-1.7-3.2-3.4-6.6-5-9.9c-0.9-1.9-1.8-3.7-2.6-5.6c-0.8-1.7,0-3.7,1.7-4.5c1.7-0.8,3.7,0,4.4,1.7
					c0.8,1.8,1.7,3.6,2.5,5.4c1.6,3.2,3.2,6.5,4.9,9.6c0.9,1.6,0.3,3.7-1.4,4.6C2339.1,1141.2,2338.6,1141.4,2338.1,1141.4z
					 M2324.1,1110.3c-1.4,0-2.7-0.8-3.2-2.2c-2-5.4-3.8-10.9-5.4-16.4c-0.5-1.8,0.5-3.7,2.3-4.2c1.8-0.5,3.7,0.5,4.2,2.3
					c1.6,5.3,3.4,10.7,5.3,15.9c0.6,1.7-0.2,3.7-2,4.3C2324.9,1110.3,2324.5,1110.3,2324.1,1110.3z M2314.5,1077.7
					c-1.5,0-2.9-1.1-3.3-2.6c-1.2-5.6-2.3-11.3-3.1-17c-0.3-1.8,1-3.6,2.8-3.8c1.8-0.3,3.6,1,3.8,2.8c0.8,5.5,1.9,11.1,3.1,16.5
					c0.4,1.8-0.7,3.6-2.6,4C2315,1077.7,2314.7,1077.7,2314.5,1077.7z M2309.4,1044.1c-1.7,0-3.2-1.3-3.4-3.1
					c-0.5-5.7-0.7-11.5-0.8-17.2c0-1.9,1.5-3.4,3.3-3.4c1.8,0,3.4,1.5,3.4,3.3c0.1,5.6,0.3,11.2,0.8,16.8c0.1,1.9-1.2,3.5-3.1,3.6
					C2309.6,1044.1,2309.5,1044.1,2309.4,1044.1z"/>
				<linearGradient id="SVGID_47_" gradientUnits="userSpaceOnUse" x1="2305.7031" y1="1002.3855" x2="2313.064" y2="1002.3855">
					<stop  offset="0" style="stop-color:#4F52FF"/>
					<stop  offset="1" style="stop-color:#4042E2"/>
				</linearGradient>
				<path class="st61" d="M2309.1,1009.9c-0.1,0-0.1,0-0.2,0c-1.9-0.1-3.3-1.7-3.2-3.6c0.2-2.8,0.4-5.7,0.6-8.5
					c0.2-1.8,1.8-3.2,3.7-3c1.9,0.2,3.2,1.8,3,3.7c-0.3,2.8-0.5,5.5-0.6,8.3C2312.3,1008.6,2310.8,1009.9,2309.1,1009.9z"/>
			</g>
			<g class="st51">
				<linearGradient id="SVGID_48_" gradientUnits="userSpaceOnUse" x1="2390.6514" y1="830.4933" x2="2403.8181" y2="830.4933">
					<stop  offset="0" style="stop-color:#4F52FF"/>
					<stop  offset="1" style="stop-color:#4042E2"/>
				</linearGradient>
				<path class="st62" d="M2394,836.6c-0.9,0-1.9-0.4-2.5-1.2c-1.2-1.4-1.1-3.5,0.3-4.7c2.1-1.9,4.3-3.7,6.5-5.5
					c1.4-1.2,3.6-0.9,4.7,0.5c1.2,1.4,0.9,3.6-0.5,4.7c-2.2,1.7-4.3,3.5-6.3,5.3C2395.6,836.3,2394.8,836.6,2394,836.6z"/>
				<linearGradient id="SVGID_49_" gradientUnits="userSpaceOnUse" x1="2410.4399" y1="900.8577" x2="2809.571" y2="900.8577">
					<stop  offset="0" style="stop-color:#4F52FF"/>
					<stop  offset="1" style="stop-color:#4042E2"/>
				</linearGradient>
				<path class="st63" d="M2806,1033.1c0,0-0.1,0-0.1,0c-1.9-0.1-3.3-1.6-3.2-3.5c0.1-3,0.2-6,0.2-9c0-2.5,0-5-0.1-7.6
					c-0.1-1.9,1.4-3.4,3.3-3.5c1.9,0,3.4,1.4,3.5,3.3c0.1,2.6,0.1,5.2,0.1,7.8c0,3.1-0.1,6.1-0.2,9.2
					C2809.3,1031.6,2807.8,1033.1,2806,1033.1z M2805,999.6c-1.7,0-3.2-1.3-3.3-3c-0.5-5.4-1.3-11-2.2-16.4
					c-0.3-1.8,0.9-3.6,2.8-3.9c1.9-0.3,3.6,0.9,3.9,2.8c0.9,5.6,1.7,11.2,2.2,16.8c0.2,1.8-1.2,3.5-3,3.7
					C2805.2,999.6,2805.1,999.6,2805,999.6z M2799.4,966.6c-1.5,0-2.9-1-3.3-2.6c-1.3-5.3-2.7-10.7-4.4-15.9
					c-0.6-1.8,0.4-3.7,2.2-4.2c1.8-0.6,3.7,0.4,4.2,2.2c1.7,5.4,3.2,10.9,4.5,16.4c0.4,1.8-0.7,3.6-2.5,4.1
					C2800,966.6,2799.7,966.6,2799.4,966.6z M2789.5,934.6c-1.3,0-2.6-0.8-3.1-2.2c-2-5.1-4.2-10.2-6.5-15.2
					c-0.8-1.7-0.1-3.7,1.6-4.5c1.7-0.8,3.7-0.1,4.5,1.6c2.4,5.1,4.6,10.4,6.7,15.6c0.7,1.7-0.2,3.7-1.9,4.4
					C2790.3,934.5,2789.9,934.6,2789.5,934.6z M2775.4,904.3c-1.2,0-2.3-0.6-3-1.7c-2.7-4.8-5.5-9.6-8.4-14.2c-1-1.6-0.5-3.6,1-4.6
					c1.6-1,3.6-0.5,4.6,1c3,4.7,5.9,9.6,8.7,14.6c0.9,1.6,0.3,3.7-1.3,4.6C2776.5,904.1,2775.9,904.3,2775.4,904.3z M2757.3,876.1
					c-1,0-2-0.5-2.7-1.4c-3.3-4.4-6.7-8.8-10.3-12.9c-1.2-1.4-1-3.5,0.4-4.7c1.4-1.2,3.5-1,4.7,0.4c3.6,4.3,7.2,8.8,10.5,13.3
					c1.1,1.5,0.8,3.6-0.7,4.7C2758.7,875.9,2758,876.1,2757.3,876.1z M2735.7,850.6c-0.9,0-1.8-0.3-2.4-1
					c-3.8-3.9-7.8-7.8-11.9-11.4c-1.4-1.2-1.5-3.4-0.3-4.8c1.2-1.4,3.4-1.5,4.8-0.3c4.2,3.8,8.3,7.7,12.2,11.7
					c1.3,1.3,1.3,3.5-0.1,4.8C2737.3,850.2,2736.5,850.6,2735.7,850.6z M2710.7,828.2c-0.7,0-1.5-0.2-2.1-0.7
					c-4.3-3.4-8.8-6.6-13.3-9.7c-1.5-1-1.9-3.1-0.9-4.7c1-1.5,3.1-1.9,4.7-0.9c4.7,3.2,9.3,6.5,13.7,10c1.5,1.1,1.7,3.3,0.6,4.7
					C2712.7,827.8,2711.7,828.2,2710.7,828.2z M2413.8,821c-1.1,0-2.1-0.5-2.8-1.4c-1.1-1.5-0.7-3.6,0.8-4.7
					c4.6-3.2,9.4-6.4,14.2-9.3c1.6-1,3.7-0.5,4.6,1.1c1,1.6,0.5,3.7-1.1,4.6c-4.7,2.9-9.3,5.9-13.8,9.1
					C2415.2,820.8,2414.5,821,2413.8,821z M2683,809.4c-0.6,0-1.2-0.1-1.7-0.5c-4.7-2.8-9.6-5.4-14.5-7.8c-1.7-0.8-2.3-2.8-1.5-4.5
					c0.8-1.7,2.8-2.3,4.5-1.5c5,2.5,10.1,5.2,14.9,8.1c1.6,0.9,2.1,3,1.2,4.6C2685.3,808.9,2684.2,809.4,2683,809.4z M2442.4,803.6
					c-1.2,0-2.4-0.7-3-1.8c-0.9-1.6-0.2-3.7,1.4-4.5c2.5-1.3,5.1-2.6,7.7-3.8c2.5-1.2,5.1-2.4,7.6-3.5c1.7-0.8,3.7,0,4.4,1.7
					c0.7,1.7,0,3.7-1.7,4.4c-2.5,1.1-5,2.2-7.4,3.4c-2.5,1.2-5,2.5-7.5,3.7C2443.5,803.5,2442.9,803.6,2442.4,803.6z M2653.1,794.6
					c-0.4,0-0.9-0.1-1.3-0.3c-5.1-2.1-10.3-4.1-15.5-5.8c-1.8-0.6-2.7-2.5-2.1-4.3c0.6-1.8,2.5-2.7,4.3-2.1c5.3,1.8,10.7,3.8,15.9,6
					c1.7,0.7,2.5,2.7,1.8,4.4C2655.6,793.8,2654.4,794.6,2653.1,794.6z M2473,790.2c-1.4,0-2.7-0.9-3.2-2.2c-0.6-1.7,0.3-3.7,2-4.3
					c5.3-1.9,10.7-3.7,16.1-5.2c1.8-0.5,3.7,0.5,4.2,2.3c0.5,1.8-0.5,3.6-2.3,4.2c-5.3,1.5-10.6,3.2-15.7,5.1
					C2473.8,790.1,2473.4,790.2,2473,790.2z M2621.4,783.8c-0.3,0-0.6,0-0.9-0.1c-5.3-1.4-10.7-2.7-16.1-3.7c-1.8-0.4-3-2.1-2.7-3.9
					c0.4-1.8,2.1-3,3.9-2.7c5.5,1.1,11.1,2.4,16.5,3.8c1.8,0.5,2.9,2.3,2.4,4.1C2624.2,782.8,2622.8,783.8,2621.4,783.8z
					 M2505.2,780.9c-1.6,0-2.9-1.1-3.3-2.7c-0.4-1.8,0.8-3.6,2.6-4c5.5-1.2,11.1-2.2,16.7-3c1.8-0.3,3.5,1,3.8,2.8
					c0.3,1.8-1,3.5-2.8,3.8c-5.4,0.8-10.9,1.8-16.3,2.9C2505.7,780.9,2505.5,780.9,2505.2,780.9z M2588.5,777.4c-0.1,0-0.3,0-0.4,0
					c-5.5-0.7-11-1.2-16.4-1.5c-1.9-0.1-3.3-1.7-3.2-3.6c0.1-1.9,1.7-3.3,3.6-3.2c5.6,0.3,11.3,0.9,16.9,1.6
					c1.8,0.2,3.1,1.9,2.9,3.8C2591.6,776.1,2590.2,777.4,2588.5,777.4z M2538.4,776.1c-1.7,0-3.2-1.3-3.4-3.1
					c-0.1-1.9,1.2-3.5,3.1-3.6c5.6-0.4,11.3-0.7,17-0.7h0c1.8,0,3.3,1.5,3.4,3.3c0,1.9-1.5,3.4-3.3,3.4c-5.5,0-11,0.3-16.5,0.7
					C2538.5,776.1,2538.4,776.1,2538.4,776.1z"/>
				<linearGradient id="SVGID_50_" gradientUnits="userSpaceOnUse" x1="2800.469" y1="1050.6653" x2="2808.2161" y2="1050.6653">
					<stop  offset="0" style="stop-color:#4F52FF"/>
					<stop  offset="1" style="stop-color:#4042E2"/>
				</linearGradient>
				<path class="st64" d="M2803.8,1058.2c-0.2,0-0.3,0-0.5,0c-1.8-0.3-3.1-2-2.9-3.8c0.4-2.7,0.7-5.5,1-8.2c0.2-1.8,1.8-3.2,3.7-3
					c1.8,0.2,3.2,1.8,3,3.7c-0.3,2.8-0.6,5.6-1,8.5C2806.9,1057,2805.5,1058.2,2803.8,1058.2z"/>
			</g>
			<g>
				<linearGradient id="SVGID_51_" gradientUnits="userSpaceOnUse" x1="2339.2119" y1="1021.7419" x2="2771.4949" y2="1021.7419">
					<stop  offset="0" style="stop-color:#4F52FF"/>
					<stop  offset="1" style="stop-color:#4042E2"/>
				</linearGradient>
				<path class="st65" d="M2771.3,1078.5c0.5-1.4,0.1-2.9-1-3.9l-32.1-27.2c2.8-19.5,2.4-39.5-1.3-59.4l30.9-28.6
					c1.1-1,1.4-2.6,0.8-3.9l-20.4-46.2c-0.6-1.4-2-2.2-3.5-2.1l-41.9,3.5c-12.2-16.2-26.7-30-43-41.1l1.6-42.1
					c0.1-1.5-0.8-2.8-2.2-3.4l-47.1-18.3c-1.4-0.5-2.9-0.1-3.9,1L2581,839c-19.5-2.8-39.5-2.4-59.4,1.3l-28.6-30.9
					c-1-1.1-2.6-1.4-3.9-0.8l-46.2,20.4c-1.4,0.6-2.2,2-2.1,3.5l3.5,41.9c-16.2,12.2-30,26.7-41.1,43l-42.1-1.6
					c-1.5-0.1-2.8,0.8-3.4,2.2l-18.3,47.1c-0.5,1.4-0.1,2.9,1,3.9l32.1,27.2c-2.8,19.5-2.4,39.5,1.3,59.4l-30.9,28.6
					c-1.1,1-1.4,2.6-0.8,3.9l20.4,46.2c0.6,1.4,2,2.2,3.5,2.1l41.9-3.5c12.2,16.2,26.7,30,43,41.1l-1.6,42.1
					c-0.1,1.5,0.8,2.8,2.2,3.4l47.1,18.3c1.4,0.5,2.9,0.1,3.9-1l27.2-32.1c19.5,2.8,39.5,2.4,59.4-1.3l28.6,30.9
					c1,1.1,2.6,1.4,3.9,0.8l46.2-20.4c1.4-0.6,2.2-2,2.1-3.5l-3.5-41.9c16.2-12.2,30-26.7,41.1-43l42.1,1.6c1.5,0.1,2.8-0.8,3.4-2.2
					L2771.3,1078.5z"/>
				<path class="st2" d="M2555.5,1070c-2,0-4-0.1-6-0.4c-12.8-1.6-24.2-8.1-32.1-18.2c-7.9-10.2-11.4-22.8-9.8-35.6
					c1.6-12.8,8.1-24.2,18.2-32.1c10.2-7.9,22.8-11.4,35.6-9.8c12.8,1.6,24.2,8.1,32.1,18.2l0,0c16.3,21,12.6,51.3-8.4,67.7
					C2576.4,1066.4,2566.1,1070,2555.5,1070z M2555.3,980.2c-9.2,0-18.1,3-25.4,8.8c-8.7,6.8-14.3,16.6-15.7,27.6
					c-1.4,11,1.6,21.9,8.5,30.6c6.8,8.7,16.6,14.3,27.6,15.7c11,1.4,21.9-1.6,30.6-8.5c8.7-6.8,14.3-16.6,15.7-27.6
					c1.4-11-1.6-21.9-8.5-30.6l0,0c-6.8-8.7-16.6-14.3-27.6-15.7C2558.7,980.3,2557,980.2,2555.3,980.2z"/>
				<path class="st2" d="M2554.5,1146.7c-48.2,0-94.2-27.9-114.8-74.8c-7.2-16.4-10.6-33.5-10.6-50.3c0-48.2,27.9-94.2,74.8-114.8
					c30.6-13.5,64.7-14.2,95.8-2.1c31.2,12.1,55.8,35.7,69.3,66.3l0,0c3.3,7.6,5.9,15.5,7.7,23.5c0.1,0.6,0.3,1.3,0.4,1.9
					c0,0.2,0.1,0.5,0.1,0.7c0,1.6-1.1,3-2.7,3.3c-1.8,0.4-3.6-0.8-4-2.6c-1.7-8.2-4.3-16.3-7.7-24l0,0c-12-27.3-33.5-48.7-60.6-60.7
					c-1.6-0.7-3.3-1.4-4.9-2c-29.5-11.5-61.7-10.8-90.7,2c-44.3,19.5-70.8,63.1-70.8,108.6c0,15.9,3.2,32.1,10.1,47.6
					c26.3,59.8,96.5,87,156.3,60.7c19.7-8.7,36.6-22.5,48.9-39.9c1.1-1.5,3.2-1.9,4.7-0.8c0.9,0.7,1.4,1.7,1.4,2.8
					c0,0.7-0.2,1.3-0.6,1.9c-13,18.4-30.9,33-51.7,42.2C2588.4,1143.3,2571.3,1146.7,2554.5,1146.7z"/>
			</g>
		</g>
	</g>
</g>
</svg>
